G04 #@! TF.GenerationSoftware,KiCad,Pcbnew,8.0.5*
G04 #@! TF.CreationDate,2025-03-12T15:23:49-04:00*
G04 #@! TF.ProjectId,PCB_version4,5043425f-7665-4727-9369-6f6e342e6b69,rev?*
G04 #@! TF.SameCoordinates,Original*
G04 #@! TF.FileFunction,Legend,Bot*
G04 #@! TF.FilePolarity,Positive*
%FSLAX46Y46*%
G04 Gerber Fmt 4.6, Leading zero omitted, Abs format (unit mm)*
G04 Created by KiCad (PCBNEW 8.0.5) date 2025-03-12 15:23:49*
%MOMM*%
%LPD*%
G01*
G04 APERTURE LIST*
G04 Aperture macros list*
%AMRoundRect*
0 Rectangle with rounded corners*
0 $1 Rounding radius*
0 $2 $3 $4 $5 $6 $7 $8 $9 X,Y pos of 4 corners*
0 Add a 4 corners polygon primitive as box body*
4,1,4,$2,$3,$4,$5,$6,$7,$8,$9,$2,$3,0*
0 Add four circle primitives for the rounded corners*
1,1,$1+$1,$2,$3*
1,1,$1+$1,$4,$5*
1,1,$1+$1,$6,$7*
1,1,$1+$1,$8,$9*
0 Add four rect primitives between the rounded corners*
20,1,$1+$1,$2,$3,$4,$5,0*
20,1,$1+$1,$4,$5,$6,$7,0*
20,1,$1+$1,$6,$7,$8,$9,0*
20,1,$1+$1,$8,$9,$2,$3,0*%
G04 Aperture macros list end*
%ADD10C,1.676000*%
%ADD11O,1.676000X1.676000*%
%ADD12RoundRect,0.261177X-0.626823X-0.776823X0.626823X-0.776823X0.626823X0.776823X-0.626823X0.776823X0*%
%ADD13O,1.776000X2.076000*%
%ADD14RoundRect,0.261177X-0.626823X-0.751823X0.626823X-0.751823X0.626823X0.751823X-0.626823X0.751823X0*%
%ADD15O,1.776000X2.026000*%
%ADD16RoundRect,0.261177X0.626823X0.776823X-0.626823X0.776823X-0.626823X-0.776823X0.626823X-0.776823X0*%
%ADD17RoundRect,0.102000X0.585000X-0.585000X0.585000X0.585000X-0.585000X0.585000X-0.585000X-0.585000X0*%
%ADD18C,1.374000*%
%ADD19RoundRect,0.261177X0.626823X0.751823X-0.626823X0.751823X-0.626823X-0.751823X0.626823X-0.751823X0*%
%ADD20C,5.776000*%
G04 APERTURE END LIST*
%LPC*%
D10*
X157420000Y-80500000D03*
D11*
X167580000Y-80500000D03*
D12*
X197250000Y-63532500D03*
D13*
X199750000Y-63532500D03*
D10*
X157420000Y-74000000D03*
D11*
X167580000Y-74000000D03*
D12*
X129750000Y-63532500D03*
D13*
X132250000Y-63532500D03*
D10*
X174420000Y-74000000D03*
D11*
X184580000Y-74000000D03*
D14*
X145375000Y-63532500D03*
D15*
X147875000Y-63532500D03*
X150375000Y-63532500D03*
X152875000Y-63532500D03*
D16*
X138666668Y-91500000D03*
D13*
X136166668Y-91500000D03*
D17*
X134300000Y-81440000D03*
D18*
X136840000Y-81440000D03*
X139380000Y-81440000D03*
X141920000Y-81440000D03*
X144460000Y-81440000D03*
X147000000Y-81440000D03*
X149540000Y-81440000D03*
X149540000Y-73500000D03*
X147000000Y-73500000D03*
X144460000Y-73500000D03*
X141920000Y-73500000D03*
X139380000Y-73500000D03*
X136840000Y-73500000D03*
X134300000Y-73500000D03*
D19*
X159333334Y-91500000D03*
D15*
X156833334Y-91500000D03*
X154333334Y-91500000D03*
X151833334Y-91500000D03*
D20*
X211000000Y-95778500D03*
D16*
X193166668Y-91500000D03*
D13*
X190666668Y-91500000D03*
D10*
X189920000Y-74000000D03*
D11*
X200080000Y-74000000D03*
D20*
X118000000Y-95778500D03*
D19*
X177500000Y-91500000D03*
D15*
X175000000Y-91500000D03*
X172500000Y-91500000D03*
D20*
X211000000Y-59000000D03*
D12*
X181625000Y-63532500D03*
D13*
X184125000Y-63532500D03*
D20*
X118000000Y-59278500D03*
D12*
X166000000Y-63532500D03*
D13*
X168500000Y-63532500D03*
%LPD*%
M02*
