M48
; DRILL file {KiCad 8.0.5} date 2025-03-12T15:25:26-0400
; FORMAT={-:-/ absolute / metric / decimal}
; #@! TF.CreationDate,2025-03-12T15:25:26-04:00
; #@! TF.GenerationSoftware,Kicad,Pcbnew,8.0.5
; #@! TF.FileFunction,Plated,1,2,PTH
FMAT,2
METRIC
; #@! TA.AperFunction,Plated,PTH,ViaDrill
T1C0.300
; #@! TA.AperFunction,Plated,PTH,ComponentDrill
T2C0.770
; #@! TA.AperFunction,Plated,PTH,ComponentDrill
T3C0.800
; #@! TA.AperFunction,Plated,PTH,ComponentDrill
T4C0.950
; #@! TA.AperFunction,Plated,PTH,ComponentDrill
T5C1.000
; #@! TA.AperFunction,Plated,PTH,ComponentDrill
T6C3.200
%
G90
G05
T1
X145.5Y-89.0
X154.0Y-78.0
X154.0Y-83.0
X154.5Y-73.5
X160.0Y-76.5
X160.0Y-84.0
X163.5Y-76.5
X180.5Y-81.5
T2
X134.3Y-73.5
X134.3Y-81.44
X136.84Y-73.5
X136.84Y-81.44
X139.38Y-73.5
X139.38Y-81.44
X141.92Y-73.5
X141.92Y-81.44
X144.46Y-73.5
X144.46Y-81.44
X147.0Y-73.5
X147.0Y-81.44
X149.54Y-73.5
X149.54Y-81.44
T3
X157.42Y-74.0
X157.42Y-80.5
X167.58Y-74.0
X167.58Y-80.5
X174.42Y-74.0
X184.58Y-74.0
X189.92Y-74.0
X200.08Y-74.0
T4
X145.375Y-63.532
X147.875Y-63.532
X150.375Y-63.532
X151.833Y-91.5
X152.875Y-63.532
X154.333Y-91.5
X156.833Y-91.5
X159.333Y-91.5
X172.5Y-91.5
X175.0Y-91.5
X177.5Y-91.5
T5
X129.75Y-63.532
X132.25Y-63.532
X136.167Y-91.5
X138.667Y-91.5
X166.0Y-63.532
X168.5Y-63.532
X181.625Y-63.532
X184.125Y-63.532
X190.667Y-91.5
X193.167Y-91.5
X197.25Y-63.532
X199.75Y-63.532
T6
X118.0Y-59.278
X118.0Y-95.778
X211.0Y-59.0
X211.0Y-95.778
M30
