G04 #@! TF.GenerationSoftware,KiCad,Pcbnew,8.0.5*
G04 #@! TF.CreationDate,2025-03-12T15:23:49-04:00*
G04 #@! TF.ProjectId,PCB_version4,5043425f-7665-4727-9369-6f6e342e6b69,rev?*
G04 #@! TF.SameCoordinates,Original*
G04 #@! TF.FileFunction,Copper,L2,Bot*
G04 #@! TF.FilePolarity,Positive*
%FSLAX46Y46*%
G04 Gerber Fmt 4.6, Leading zero omitted, Abs format (unit mm)*
G04 Created by KiCad (PCBNEW 8.0.5) date 2025-03-12 15:23:49*
%MOMM*%
%LPD*%
G01*
G04 APERTURE LIST*
G04 Aperture macros list*
%AMRoundRect*
0 Rectangle with rounded corners*
0 $1 Rounding radius*
0 $2 $3 $4 $5 $6 $7 $8 $9 X,Y pos of 4 corners*
0 Add a 4 corners polygon primitive as box body*
4,1,4,$2,$3,$4,$5,$6,$7,$8,$9,$2,$3,0*
0 Add four circle primitives for the rounded corners*
1,1,$1+$1,$2,$3*
1,1,$1+$1,$4,$5*
1,1,$1+$1,$6,$7*
1,1,$1+$1,$8,$9*
0 Add four rect primitives between the rounded corners*
20,1,$1+$1,$2,$3,$4,$5,0*
20,1,$1+$1,$4,$5,$6,$7,0*
20,1,$1+$1,$6,$7,$8,$9,0*
20,1,$1+$1,$8,$9,$2,$3,0*%
G04 Aperture macros list end*
G04 #@! TA.AperFunction,ComponentPad*
%ADD10C,1.600000*%
G04 #@! TD*
G04 #@! TA.AperFunction,ComponentPad*
%ADD11O,1.600000X1.600000*%
G04 #@! TD*
G04 #@! TA.AperFunction,ComponentPad*
%ADD12RoundRect,0.250000X-0.600000X-0.750000X0.600000X-0.750000X0.600000X0.750000X-0.600000X0.750000X0*%
G04 #@! TD*
G04 #@! TA.AperFunction,ComponentPad*
%ADD13O,1.700000X2.000000*%
G04 #@! TD*
G04 #@! TA.AperFunction,ComponentPad*
%ADD14RoundRect,0.250000X-0.600000X-0.725000X0.600000X-0.725000X0.600000X0.725000X-0.600000X0.725000X0*%
G04 #@! TD*
G04 #@! TA.AperFunction,ComponentPad*
%ADD15O,1.700000X1.950000*%
G04 #@! TD*
G04 #@! TA.AperFunction,ComponentPad*
%ADD16RoundRect,0.250000X0.600000X0.750000X-0.600000X0.750000X-0.600000X-0.750000X0.600000X-0.750000X0*%
G04 #@! TD*
G04 #@! TA.AperFunction,ComponentPad*
%ADD17R,1.170000X1.170000*%
G04 #@! TD*
G04 #@! TA.AperFunction,ComponentPad*
%ADD18C,1.170000*%
G04 #@! TD*
G04 #@! TA.AperFunction,ComponentPad*
%ADD19RoundRect,0.250000X0.600000X0.725000X-0.600000X0.725000X-0.600000X-0.725000X0.600000X-0.725000X0*%
G04 #@! TD*
G04 #@! TA.AperFunction,ComponentPad*
%ADD20C,5.700000*%
G04 #@! TD*
G04 #@! TA.AperFunction,ViaPad*
%ADD21C,0.600000*%
G04 #@! TD*
G04 #@! TA.AperFunction,Conductor*
%ADD22C,0.600000*%
G04 #@! TD*
G04 APERTURE END LIST*
D10*
X157420000Y-80500000D03*
D11*
X167580000Y-80500000D03*
D12*
X197250000Y-63532500D03*
D13*
X199750000Y-63532500D03*
D10*
X157420000Y-74000000D03*
D11*
X167580000Y-74000000D03*
D12*
X129750000Y-63532500D03*
D13*
X132250000Y-63532500D03*
D10*
X174420000Y-74000000D03*
D11*
X184580000Y-74000000D03*
D14*
X145375000Y-63532500D03*
D15*
X147875000Y-63532500D03*
X150375000Y-63532500D03*
X152875000Y-63532500D03*
D16*
X138666668Y-91500000D03*
D13*
X136166668Y-91500000D03*
D17*
X134300000Y-81440000D03*
D18*
X136840000Y-81440000D03*
X139380000Y-81440000D03*
X141920000Y-81440000D03*
X144460000Y-81440000D03*
X147000000Y-81440000D03*
X149540000Y-81440000D03*
X149540000Y-73500000D03*
X147000000Y-73500000D03*
X144460000Y-73500000D03*
X141920000Y-73500000D03*
X139380000Y-73500000D03*
X136840000Y-73500000D03*
X134300000Y-73500000D03*
D19*
X159333334Y-91500000D03*
D15*
X156833334Y-91500000D03*
X154333334Y-91500000D03*
X151833334Y-91500000D03*
D20*
X211000000Y-95778500D03*
D16*
X193166668Y-91500000D03*
D13*
X190666668Y-91500000D03*
D10*
X189920000Y-74000000D03*
D11*
X200080000Y-74000000D03*
D20*
X118000000Y-95778500D03*
D19*
X177500000Y-91500000D03*
D15*
X175000000Y-91500000D03*
X172500000Y-91500000D03*
D20*
X211000000Y-59000000D03*
D12*
X181625000Y-63532500D03*
D13*
X184125000Y-63532500D03*
D20*
X118000000Y-59278500D03*
D12*
X166000000Y-63532500D03*
D13*
X168500000Y-63532500D03*
D21*
X163500000Y-76500000D03*
X160000000Y-76500000D03*
X154500000Y-73500000D03*
X180500000Y-81500000D03*
X145500000Y-89000000D03*
X160000000Y-84000000D03*
X154000000Y-83000000D03*
X154000000Y-78000000D03*
D22*
X174340000Y-76500000D02*
X174420000Y-76420000D01*
X163500000Y-76500000D02*
X174340000Y-76500000D01*
X157500000Y-76500000D02*
X160000000Y-76500000D01*
X154500000Y-73500000D02*
X157500000Y-76500000D01*
X180500000Y-93000000D02*
X180500000Y-81500000D01*
X178500000Y-95000000D02*
X180500000Y-93000000D01*
X176500000Y-95000000D02*
X178500000Y-95000000D01*
X151500000Y-95000000D02*
X176500000Y-95000000D01*
X145500000Y-89000000D02*
X151500000Y-95000000D01*
X174420000Y-76420000D02*
X178000000Y-80000000D01*
X194080000Y-80000000D02*
X200080000Y-74000000D01*
X174420000Y-74000000D02*
X174420000Y-76420000D01*
X178000000Y-80000000D02*
X194080000Y-80000000D01*
X155000000Y-84000000D02*
X160000000Y-84000000D01*
X154000000Y-83000000D02*
X155000000Y-84000000D01*
X175000000Y-87920000D02*
X175000000Y-91500000D01*
X167580000Y-80500000D02*
X175000000Y-87920000D01*
X154920000Y-78000000D02*
X157420000Y-80500000D01*
X154000000Y-78000000D02*
X154920000Y-78000000D01*
X140400000Y-85000000D02*
X136840000Y-81440000D01*
X153000000Y-85000000D02*
X140400000Y-85000000D01*
X145375000Y-64875000D02*
X153000000Y-72500000D01*
X153000000Y-72500000D02*
X153000000Y-85000000D01*
X145375000Y-63532500D02*
X145375000Y-64875000D01*
X157842500Y-71000000D02*
X162500000Y-71000000D01*
X150375000Y-63532500D02*
X157842500Y-71000000D01*
X132250000Y-63830000D02*
X141920000Y-73500000D01*
X132250000Y-63532500D02*
X132250000Y-63830000D01*
X167580000Y-82420000D02*
X167580000Y-80500000D01*
X154333334Y-88666666D02*
X158000000Y-85000000D01*
X158000000Y-85000000D02*
X165000000Y-85000000D01*
X165000000Y-85000000D02*
X167580000Y-82420000D01*
X154333334Y-91500000D02*
X154333334Y-88666666D01*
X162500000Y-77500000D02*
X165500000Y-80500000D01*
X162500000Y-71000000D02*
X162500000Y-77500000D01*
X165500000Y-80500000D02*
X167580000Y-80500000D01*
X166000000Y-67500000D02*
X162500000Y-71000000D01*
X166000000Y-63532500D02*
X166000000Y-67500000D01*
X197250000Y-63532500D02*
X184125000Y-63532500D01*
M02*
