%TF.GenerationSoftware,KiCad,Pcbnew,8.0.5*%
%TF.CreationDate,2025-03-12T15:25:44-04:00*%
%TF.ProjectId,PCB_version4,5043425f-7665-4727-9369-6f6e342e6b69,rev?*%
%TF.SameCoordinates,Original*%
%TF.FileFunction,Drillmap*%
%TF.FilePolarity,Positive*%
%FSLAX45Y45*%
G04 Gerber Fmt 4.5, Leading zero omitted, Abs format (unit mm)*
G04 Created by KiCad (PCBNEW 8.0.5) date 2025-03-12 15:25:44*
%MOMM*%
%LPD*%
G01*
G04 APERTURE LIST*
%ADD10C,0.050000*%
%ADD11C,0.200000*%
%ADD12C,0.100000*%
%ADD13C,0.320000*%
G04 APERTURE END LIST*
D10*
X11300000Y-5425000D02*
X21600000Y-5425000D01*
X21600000Y-10075000D01*
X11300000Y-10075000D01*
X11300000Y-5425000D01*
D11*
D12*
X14535000Y-8885000D02*
X14565000Y-8915000D01*
X14565000Y-8885000D02*
X14535000Y-8915000D01*
X15385000Y-7785000D02*
X15415000Y-7815000D01*
X15415000Y-7785000D02*
X15385000Y-7815000D01*
X15385000Y-8285000D02*
X15415000Y-8315000D01*
X15415000Y-8285000D02*
X15385000Y-8315000D01*
X15435000Y-7335000D02*
X15465000Y-7365000D01*
X15465000Y-7335000D02*
X15435000Y-7365000D01*
X15985000Y-7635000D02*
X16015000Y-7665000D01*
X16015000Y-7635000D02*
X15985000Y-7665000D01*
X15985000Y-8385000D02*
X16015000Y-8415000D01*
X16015000Y-8385000D02*
X15985000Y-8415000D01*
X16335000Y-7635000D02*
X16365000Y-7665000D01*
X16365000Y-7635000D02*
X16335000Y-7665000D01*
X18035000Y-8135000D02*
X18065000Y-8165000D01*
X18065000Y-8135000D02*
X18035000Y-8165000D01*
X13468500Y-7350000D02*
G75*
G02*
X13391500Y-7350000I-38500J0D01*
G01*
X13391500Y-7350000D02*
G75*
G02*
X13468500Y-7350000I38500J0D01*
G01*
X13468500Y-8144000D02*
G75*
G02*
X13391500Y-8144000I-38500J0D01*
G01*
X13391500Y-8144000D02*
G75*
G02*
X13468500Y-8144000I38500J0D01*
G01*
X13722500Y-7350000D02*
G75*
G02*
X13645500Y-7350000I-38500J0D01*
G01*
X13645500Y-7350000D02*
G75*
G02*
X13722500Y-7350000I38500J0D01*
G01*
X13722500Y-8144000D02*
G75*
G02*
X13645500Y-8144000I-38500J0D01*
G01*
X13645500Y-8144000D02*
G75*
G02*
X13722500Y-8144000I38500J0D01*
G01*
X13976500Y-7350000D02*
G75*
G02*
X13899500Y-7350000I-38500J0D01*
G01*
X13899500Y-7350000D02*
G75*
G02*
X13976500Y-7350000I38500J0D01*
G01*
X13976500Y-8144000D02*
G75*
G02*
X13899500Y-8144000I-38500J0D01*
G01*
X13899500Y-8144000D02*
G75*
G02*
X13976500Y-8144000I38500J0D01*
G01*
X14230500Y-7350000D02*
G75*
G02*
X14153500Y-7350000I-38500J0D01*
G01*
X14153500Y-7350000D02*
G75*
G02*
X14230500Y-7350000I38500J0D01*
G01*
X14230500Y-8144000D02*
G75*
G02*
X14153500Y-8144000I-38500J0D01*
G01*
X14153500Y-8144000D02*
G75*
G02*
X14230500Y-8144000I38500J0D01*
G01*
X14484500Y-7350000D02*
G75*
G02*
X14407500Y-7350000I-38500J0D01*
G01*
X14407500Y-7350000D02*
G75*
G02*
X14484500Y-7350000I38500J0D01*
G01*
X14484500Y-8144000D02*
G75*
G02*
X14407500Y-8144000I-38500J0D01*
G01*
X14407500Y-8144000D02*
G75*
G02*
X14484500Y-8144000I38500J0D01*
G01*
X14738500Y-7350000D02*
G75*
G02*
X14661500Y-7350000I-38500J0D01*
G01*
X14661500Y-7350000D02*
G75*
G02*
X14738500Y-7350000I38500J0D01*
G01*
X14738500Y-8144000D02*
G75*
G02*
X14661500Y-8144000I-38500J0D01*
G01*
X14661500Y-8144000D02*
G75*
G02*
X14738500Y-8144000I38500J0D01*
G01*
X14992500Y-7350000D02*
G75*
G02*
X14915500Y-7350000I-38500J0D01*
G01*
X14915500Y-7350000D02*
G75*
G02*
X14992500Y-7350000I38500J0D01*
G01*
X14992500Y-8144000D02*
G75*
G02*
X14915500Y-8144000I-38500J0D01*
G01*
X14915500Y-8144000D02*
G75*
G02*
X14992500Y-8144000I38500J0D01*
G01*
X15742000Y-7360000D02*
X15742000Y-7440000D01*
X15702000Y-7400000D02*
X15782000Y-7400000D01*
X15742000Y-8010000D02*
X15742000Y-8090000D01*
X15702000Y-8050000D02*
X15782000Y-8050000D01*
X16758000Y-7360000D02*
X16758000Y-7440000D01*
X16718000Y-7400000D02*
X16798000Y-7400000D01*
X16758000Y-8010000D02*
X16758000Y-8090000D01*
X16718000Y-8050000D02*
X16798000Y-8050000D01*
X17442000Y-7360000D02*
X17442000Y-7440000D01*
X17402000Y-7400000D02*
X17482000Y-7400000D01*
X18458000Y-7360000D02*
X18458000Y-7440000D01*
X18418000Y-7400000D02*
X18498000Y-7400000D01*
X18992000Y-7360000D02*
X18992000Y-7440000D01*
X18952000Y-7400000D02*
X19032000Y-7400000D01*
X20008000Y-7360000D02*
X20008000Y-7440000D01*
X19968000Y-7400000D02*
X20048000Y-7400000D01*
X14571088Y-6386838D02*
X14571088Y-6319662D01*
X14503912Y-6319662D01*
X14503912Y-6386838D01*
X14571088Y-6386838D01*
X14821088Y-6386838D02*
X14821088Y-6319662D01*
X14753912Y-6319662D01*
X14753912Y-6386838D01*
X14821088Y-6386838D01*
X15071088Y-6386838D02*
X15071088Y-6319662D01*
X15003912Y-6319662D01*
X15003912Y-6386838D01*
X15071088Y-6386838D01*
X15216921Y-9183588D02*
X15216921Y-9116412D01*
X15149745Y-9116412D01*
X15149745Y-9183588D01*
X15216921Y-9183588D01*
X15321088Y-6386838D02*
X15321088Y-6319662D01*
X15253912Y-6319662D01*
X15253912Y-6386838D01*
X15321088Y-6386838D01*
X15466921Y-9183588D02*
X15466921Y-9116412D01*
X15399745Y-9116412D01*
X15399745Y-9183588D01*
X15466921Y-9183588D01*
X15716921Y-9183588D02*
X15716921Y-9116412D01*
X15649745Y-9116412D01*
X15649745Y-9183588D01*
X15716921Y-9183588D01*
X15966921Y-9183588D02*
X15966921Y-9116412D01*
X15899745Y-9116412D01*
X15899745Y-9183588D01*
X15966921Y-9183588D01*
X17283588Y-9183588D02*
X17283588Y-9116412D01*
X17216412Y-9116412D01*
X17216412Y-9183588D01*
X17283588Y-9183588D01*
X17533588Y-9183588D02*
X17533588Y-9116412D01*
X17466412Y-9116412D01*
X17466412Y-9183588D01*
X17533588Y-9183588D01*
X17783588Y-9183588D02*
X17783588Y-9116412D01*
X17716412Y-9116412D01*
X17716412Y-9183588D01*
X17783588Y-9183588D01*
X12975000Y-6403250D02*
X13025000Y-6353250D01*
X12975000Y-6303250D01*
X12925000Y-6353250D01*
X12975000Y-6403250D01*
X13225000Y-6403250D02*
X13275000Y-6353250D01*
X13225000Y-6303250D01*
X13175000Y-6353250D01*
X13225000Y-6403250D01*
X13616667Y-9200000D02*
X13666667Y-9150000D01*
X13616667Y-9100000D01*
X13566667Y-9150000D01*
X13616667Y-9200000D01*
X13866667Y-9200000D02*
X13916667Y-9150000D01*
X13866667Y-9100000D01*
X13816667Y-9150000D01*
X13866667Y-9200000D01*
X16600000Y-6403250D02*
X16650000Y-6353250D01*
X16600000Y-6303250D01*
X16550000Y-6353250D01*
X16600000Y-6403250D01*
X16850000Y-6403250D02*
X16900000Y-6353250D01*
X16850000Y-6303250D01*
X16800000Y-6353250D01*
X16850000Y-6403250D01*
X18162500Y-6403250D02*
X18212500Y-6353250D01*
X18162500Y-6303250D01*
X18112500Y-6353250D01*
X18162500Y-6403250D01*
X18412500Y-6403250D02*
X18462500Y-6353250D01*
X18412500Y-6303250D01*
X18362500Y-6353250D01*
X18412500Y-6403250D01*
X19066667Y-9200000D02*
X19116667Y-9150000D01*
X19066667Y-9100000D01*
X19016667Y-9150000D01*
X19066667Y-9200000D01*
X19316667Y-9200000D02*
X19366667Y-9150000D01*
X19316667Y-9100000D01*
X19266667Y-9150000D01*
X19316667Y-9200000D01*
X19725000Y-6403250D02*
X19775000Y-6353250D01*
X19725000Y-6303250D01*
X19675000Y-6353250D01*
X19725000Y-6403250D01*
X19975000Y-6403250D02*
X20025000Y-6353250D01*
X19975000Y-6303250D01*
X19925000Y-6353250D01*
X19975000Y-6403250D01*
D13*
X11640000Y-5767850D02*
X11960000Y-6087850D01*
X11960000Y-5767850D02*
X11640000Y-6087850D01*
X11960000Y-5927850D02*
G75*
G02*
X11640000Y-5927850I-160000J0D01*
G01*
X11640000Y-5927850D02*
G75*
G02*
X11960000Y-5927850I160000J0D01*
G01*
X11640000Y-9417850D02*
X11960000Y-9737850D01*
X11960000Y-9417850D02*
X11640000Y-9737850D01*
X11960000Y-9577850D02*
G75*
G02*
X11640000Y-9577850I-160000J0D01*
G01*
X11640000Y-9577850D02*
G75*
G02*
X11960000Y-9577850I160000J0D01*
G01*
X20940000Y-5740000D02*
X21260000Y-6060000D01*
X21260000Y-5740000D02*
X20940000Y-6060000D01*
X21260000Y-5900000D02*
G75*
G02*
X20940000Y-5900000I-160000J0D01*
G01*
X20940000Y-5900000D02*
G75*
G02*
X21260000Y-5900000I160000J0D01*
G01*
X20940000Y-9417850D02*
X21260000Y-9737850D01*
X21260000Y-9417850D02*
X20940000Y-9737850D01*
X21260000Y-9577850D02*
G75*
G02*
X20940000Y-9577850I-160000J0D01*
G01*
X20940000Y-9577850D02*
G75*
G02*
X21260000Y-9577850I160000J0D01*
G01*
D11*
X11558277Y-10388984D02*
X11558277Y-10188984D01*
X11558277Y-10188984D02*
X11605896Y-10188984D01*
X11605896Y-10188984D02*
X11634467Y-10198508D01*
X11634467Y-10198508D02*
X11653515Y-10217555D01*
X11653515Y-10217555D02*
X11663039Y-10236603D01*
X11663039Y-10236603D02*
X11672562Y-10274698D01*
X11672562Y-10274698D02*
X11672562Y-10303270D01*
X11672562Y-10303270D02*
X11663039Y-10341365D01*
X11663039Y-10341365D02*
X11653515Y-10360412D01*
X11653515Y-10360412D02*
X11634467Y-10379460D01*
X11634467Y-10379460D02*
X11605896Y-10388984D01*
X11605896Y-10388984D02*
X11558277Y-10388984D01*
X11758277Y-10388984D02*
X11758277Y-10255650D01*
X11758277Y-10293746D02*
X11767801Y-10274698D01*
X11767801Y-10274698D02*
X11777324Y-10265174D01*
X11777324Y-10265174D02*
X11796372Y-10255650D01*
X11796372Y-10255650D02*
X11815420Y-10255650D01*
X11882086Y-10388984D02*
X11882086Y-10255650D01*
X11882086Y-10188984D02*
X11872562Y-10198508D01*
X11872562Y-10198508D02*
X11882086Y-10208031D01*
X11882086Y-10208031D02*
X11891610Y-10198508D01*
X11891610Y-10198508D02*
X11882086Y-10188984D01*
X11882086Y-10188984D02*
X11882086Y-10208031D01*
X12005896Y-10388984D02*
X11986848Y-10379460D01*
X11986848Y-10379460D02*
X11977324Y-10360412D01*
X11977324Y-10360412D02*
X11977324Y-10188984D01*
X12110658Y-10388984D02*
X12091610Y-10379460D01*
X12091610Y-10379460D02*
X12082086Y-10360412D01*
X12082086Y-10360412D02*
X12082086Y-10188984D01*
X12339229Y-10388984D02*
X12339229Y-10188984D01*
X12339229Y-10188984D02*
X12405896Y-10331841D01*
X12405896Y-10331841D02*
X12472562Y-10188984D01*
X12472562Y-10188984D02*
X12472562Y-10388984D01*
X12653515Y-10388984D02*
X12653515Y-10284222D01*
X12653515Y-10284222D02*
X12643991Y-10265174D01*
X12643991Y-10265174D02*
X12624943Y-10255650D01*
X12624943Y-10255650D02*
X12586848Y-10255650D01*
X12586848Y-10255650D02*
X12567801Y-10265174D01*
X12653515Y-10379460D02*
X12634467Y-10388984D01*
X12634467Y-10388984D02*
X12586848Y-10388984D01*
X12586848Y-10388984D02*
X12567801Y-10379460D01*
X12567801Y-10379460D02*
X12558277Y-10360412D01*
X12558277Y-10360412D02*
X12558277Y-10341365D01*
X12558277Y-10341365D02*
X12567801Y-10322317D01*
X12567801Y-10322317D02*
X12586848Y-10312793D01*
X12586848Y-10312793D02*
X12634467Y-10312793D01*
X12634467Y-10312793D02*
X12653515Y-10303270D01*
X12748753Y-10255650D02*
X12748753Y-10455650D01*
X12748753Y-10265174D02*
X12767801Y-10255650D01*
X12767801Y-10255650D02*
X12805896Y-10255650D01*
X12805896Y-10255650D02*
X12824943Y-10265174D01*
X12824943Y-10265174D02*
X12834467Y-10274698D01*
X12834467Y-10274698D02*
X12843991Y-10293746D01*
X12843991Y-10293746D02*
X12843991Y-10350889D01*
X12843991Y-10350889D02*
X12834467Y-10369936D01*
X12834467Y-10369936D02*
X12824943Y-10379460D01*
X12824943Y-10379460D02*
X12805896Y-10388984D01*
X12805896Y-10388984D02*
X12767801Y-10388984D01*
X12767801Y-10388984D02*
X12748753Y-10379460D01*
X12929705Y-10369936D02*
X12939229Y-10379460D01*
X12939229Y-10379460D02*
X12929705Y-10388984D01*
X12929705Y-10388984D02*
X12920182Y-10379460D01*
X12920182Y-10379460D02*
X12929705Y-10369936D01*
X12929705Y-10369936D02*
X12929705Y-10388984D01*
X12929705Y-10265174D02*
X12939229Y-10274698D01*
X12939229Y-10274698D02*
X12929705Y-10284222D01*
X12929705Y-10284222D02*
X12920182Y-10274698D01*
X12920182Y-10274698D02*
X12929705Y-10265174D01*
X12929705Y-10265174D02*
X12929705Y-10284222D01*
D12*
X11267500Y-10702500D02*
X11297500Y-10732500D01*
X11297500Y-10702500D02*
X11267500Y-10732500D01*
D11*
X11596372Y-10608984D02*
X11615420Y-10608984D01*
X11615420Y-10608984D02*
X11634467Y-10618508D01*
X11634467Y-10618508D02*
X11643991Y-10628031D01*
X11643991Y-10628031D02*
X11653515Y-10647079D01*
X11653515Y-10647079D02*
X11663039Y-10685174D01*
X11663039Y-10685174D02*
X11663039Y-10732793D01*
X11663039Y-10732793D02*
X11653515Y-10770889D01*
X11653515Y-10770889D02*
X11643991Y-10789936D01*
X11643991Y-10789936D02*
X11634467Y-10799460D01*
X11634467Y-10799460D02*
X11615420Y-10808984D01*
X11615420Y-10808984D02*
X11596372Y-10808984D01*
X11596372Y-10808984D02*
X11577324Y-10799460D01*
X11577324Y-10799460D02*
X11567801Y-10789936D01*
X11567801Y-10789936D02*
X11558277Y-10770889D01*
X11558277Y-10770889D02*
X11548753Y-10732793D01*
X11548753Y-10732793D02*
X11548753Y-10685174D01*
X11548753Y-10685174D02*
X11558277Y-10647079D01*
X11558277Y-10647079D02*
X11567801Y-10628031D01*
X11567801Y-10628031D02*
X11577324Y-10618508D01*
X11577324Y-10618508D02*
X11596372Y-10608984D01*
X11748753Y-10789936D02*
X11758277Y-10799460D01*
X11758277Y-10799460D02*
X11748753Y-10808984D01*
X11748753Y-10808984D02*
X11739229Y-10799460D01*
X11739229Y-10799460D02*
X11748753Y-10789936D01*
X11748753Y-10789936D02*
X11748753Y-10808984D01*
X11824943Y-10608984D02*
X11948753Y-10608984D01*
X11948753Y-10608984D02*
X11882086Y-10685174D01*
X11882086Y-10685174D02*
X11910658Y-10685174D01*
X11910658Y-10685174D02*
X11929705Y-10694698D01*
X11929705Y-10694698D02*
X11939229Y-10704222D01*
X11939229Y-10704222D02*
X11948753Y-10723270D01*
X11948753Y-10723270D02*
X11948753Y-10770889D01*
X11948753Y-10770889D02*
X11939229Y-10789936D01*
X11939229Y-10789936D02*
X11929705Y-10799460D01*
X11929705Y-10799460D02*
X11910658Y-10808984D01*
X11910658Y-10808984D02*
X11853515Y-10808984D01*
X11853515Y-10808984D02*
X11834467Y-10799460D01*
X11834467Y-10799460D02*
X11824943Y-10789936D01*
X12072562Y-10608984D02*
X12091610Y-10608984D01*
X12091610Y-10608984D02*
X12110658Y-10618508D01*
X12110658Y-10618508D02*
X12120182Y-10628031D01*
X12120182Y-10628031D02*
X12129705Y-10647079D01*
X12129705Y-10647079D02*
X12139229Y-10685174D01*
X12139229Y-10685174D02*
X12139229Y-10732793D01*
X12139229Y-10732793D02*
X12129705Y-10770889D01*
X12129705Y-10770889D02*
X12120182Y-10789936D01*
X12120182Y-10789936D02*
X12110658Y-10799460D01*
X12110658Y-10799460D02*
X12091610Y-10808984D01*
X12091610Y-10808984D02*
X12072562Y-10808984D01*
X12072562Y-10808984D02*
X12053515Y-10799460D01*
X12053515Y-10799460D02*
X12043991Y-10789936D01*
X12043991Y-10789936D02*
X12034467Y-10770889D01*
X12034467Y-10770889D02*
X12024943Y-10732793D01*
X12024943Y-10732793D02*
X12024943Y-10685174D01*
X12024943Y-10685174D02*
X12034467Y-10647079D01*
X12034467Y-10647079D02*
X12043991Y-10628031D01*
X12043991Y-10628031D02*
X12053515Y-10618508D01*
X12053515Y-10618508D02*
X12072562Y-10608984D01*
X12263039Y-10608984D02*
X12282086Y-10608984D01*
X12282086Y-10608984D02*
X12301134Y-10618508D01*
X12301134Y-10618508D02*
X12310658Y-10628031D01*
X12310658Y-10628031D02*
X12320182Y-10647079D01*
X12320182Y-10647079D02*
X12329705Y-10685174D01*
X12329705Y-10685174D02*
X12329705Y-10732793D01*
X12329705Y-10732793D02*
X12320182Y-10770889D01*
X12320182Y-10770889D02*
X12310658Y-10789936D01*
X12310658Y-10789936D02*
X12301134Y-10799460D01*
X12301134Y-10799460D02*
X12282086Y-10808984D01*
X12282086Y-10808984D02*
X12263039Y-10808984D01*
X12263039Y-10808984D02*
X12243991Y-10799460D01*
X12243991Y-10799460D02*
X12234467Y-10789936D01*
X12234467Y-10789936D02*
X12224943Y-10770889D01*
X12224943Y-10770889D02*
X12215420Y-10732793D01*
X12215420Y-10732793D02*
X12215420Y-10685174D01*
X12215420Y-10685174D02*
X12224943Y-10647079D01*
X12224943Y-10647079D02*
X12234467Y-10628031D01*
X12234467Y-10628031D02*
X12243991Y-10618508D01*
X12243991Y-10618508D02*
X12263039Y-10608984D01*
X12415420Y-10808984D02*
X12415420Y-10675650D01*
X12415420Y-10694698D02*
X12424943Y-10685174D01*
X12424943Y-10685174D02*
X12443991Y-10675650D01*
X12443991Y-10675650D02*
X12472563Y-10675650D01*
X12472563Y-10675650D02*
X12491610Y-10685174D01*
X12491610Y-10685174D02*
X12501134Y-10704222D01*
X12501134Y-10704222D02*
X12501134Y-10808984D01*
X12501134Y-10704222D02*
X12510658Y-10685174D01*
X12510658Y-10685174D02*
X12529705Y-10675650D01*
X12529705Y-10675650D02*
X12558277Y-10675650D01*
X12558277Y-10675650D02*
X12577324Y-10685174D01*
X12577324Y-10685174D02*
X12586848Y-10704222D01*
X12586848Y-10704222D02*
X12586848Y-10808984D01*
X12682086Y-10808984D02*
X12682086Y-10675650D01*
X12682086Y-10694698D02*
X12691610Y-10685174D01*
X12691610Y-10685174D02*
X12710658Y-10675650D01*
X12710658Y-10675650D02*
X12739229Y-10675650D01*
X12739229Y-10675650D02*
X12758277Y-10685174D01*
X12758277Y-10685174D02*
X12767801Y-10704222D01*
X12767801Y-10704222D02*
X12767801Y-10808984D01*
X12767801Y-10704222D02*
X12777324Y-10685174D01*
X12777324Y-10685174D02*
X12796372Y-10675650D01*
X12796372Y-10675650D02*
X12824943Y-10675650D01*
X12824943Y-10675650D02*
X12843991Y-10685174D01*
X12843991Y-10685174D02*
X12853515Y-10704222D01*
X12853515Y-10704222D02*
X12853515Y-10808984D01*
X13243991Y-10599460D02*
X13072563Y-10856603D01*
X13501134Y-10608984D02*
X13520182Y-10608984D01*
X13520182Y-10608984D02*
X13539229Y-10618508D01*
X13539229Y-10618508D02*
X13548753Y-10628031D01*
X13548753Y-10628031D02*
X13558277Y-10647079D01*
X13558277Y-10647079D02*
X13567801Y-10685174D01*
X13567801Y-10685174D02*
X13567801Y-10732793D01*
X13567801Y-10732793D02*
X13558277Y-10770889D01*
X13558277Y-10770889D02*
X13548753Y-10789936D01*
X13548753Y-10789936D02*
X13539229Y-10799460D01*
X13539229Y-10799460D02*
X13520182Y-10808984D01*
X13520182Y-10808984D02*
X13501134Y-10808984D01*
X13501134Y-10808984D02*
X13482086Y-10799460D01*
X13482086Y-10799460D02*
X13472563Y-10789936D01*
X13472563Y-10789936D02*
X13463039Y-10770889D01*
X13463039Y-10770889D02*
X13453515Y-10732793D01*
X13453515Y-10732793D02*
X13453515Y-10685174D01*
X13453515Y-10685174D02*
X13463039Y-10647079D01*
X13463039Y-10647079D02*
X13472563Y-10628031D01*
X13472563Y-10628031D02*
X13482086Y-10618508D01*
X13482086Y-10618508D02*
X13501134Y-10608984D01*
X13653515Y-10789936D02*
X13663039Y-10799460D01*
X13663039Y-10799460D02*
X13653515Y-10808984D01*
X13653515Y-10808984D02*
X13643991Y-10799460D01*
X13643991Y-10799460D02*
X13653515Y-10789936D01*
X13653515Y-10789936D02*
X13653515Y-10808984D01*
X13786848Y-10608984D02*
X13805896Y-10608984D01*
X13805896Y-10608984D02*
X13824944Y-10618508D01*
X13824944Y-10618508D02*
X13834467Y-10628031D01*
X13834467Y-10628031D02*
X13843991Y-10647079D01*
X13843991Y-10647079D02*
X13853515Y-10685174D01*
X13853515Y-10685174D02*
X13853515Y-10732793D01*
X13853515Y-10732793D02*
X13843991Y-10770889D01*
X13843991Y-10770889D02*
X13834467Y-10789936D01*
X13834467Y-10789936D02*
X13824944Y-10799460D01*
X13824944Y-10799460D02*
X13805896Y-10808984D01*
X13805896Y-10808984D02*
X13786848Y-10808984D01*
X13786848Y-10808984D02*
X13767801Y-10799460D01*
X13767801Y-10799460D02*
X13758277Y-10789936D01*
X13758277Y-10789936D02*
X13748753Y-10770889D01*
X13748753Y-10770889D02*
X13739229Y-10732793D01*
X13739229Y-10732793D02*
X13739229Y-10685174D01*
X13739229Y-10685174D02*
X13748753Y-10647079D01*
X13748753Y-10647079D02*
X13758277Y-10628031D01*
X13758277Y-10628031D02*
X13767801Y-10618508D01*
X13767801Y-10618508D02*
X13786848Y-10608984D01*
X14043991Y-10808984D02*
X13929706Y-10808984D01*
X13986848Y-10808984D02*
X13986848Y-10608984D01*
X13986848Y-10608984D02*
X13967801Y-10637555D01*
X13967801Y-10637555D02*
X13948753Y-10656603D01*
X13948753Y-10656603D02*
X13929706Y-10666127D01*
X14234467Y-10808984D02*
X14120182Y-10808984D01*
X14177325Y-10808984D02*
X14177325Y-10608984D01*
X14177325Y-10608984D02*
X14158277Y-10637555D01*
X14158277Y-10637555D02*
X14139229Y-10656603D01*
X14139229Y-10656603D02*
X14120182Y-10666127D01*
X14348753Y-10694698D02*
X14329706Y-10685174D01*
X14329706Y-10685174D02*
X14320182Y-10675650D01*
X14320182Y-10675650D02*
X14310658Y-10656603D01*
X14310658Y-10656603D02*
X14310658Y-10647079D01*
X14310658Y-10647079D02*
X14320182Y-10628031D01*
X14320182Y-10628031D02*
X14329706Y-10618508D01*
X14329706Y-10618508D02*
X14348753Y-10608984D01*
X14348753Y-10608984D02*
X14386848Y-10608984D01*
X14386848Y-10608984D02*
X14405896Y-10618508D01*
X14405896Y-10618508D02*
X14415420Y-10628031D01*
X14415420Y-10628031D02*
X14424944Y-10647079D01*
X14424944Y-10647079D02*
X14424944Y-10656603D01*
X14424944Y-10656603D02*
X14415420Y-10675650D01*
X14415420Y-10675650D02*
X14405896Y-10685174D01*
X14405896Y-10685174D02*
X14386848Y-10694698D01*
X14386848Y-10694698D02*
X14348753Y-10694698D01*
X14348753Y-10694698D02*
X14329706Y-10704222D01*
X14329706Y-10704222D02*
X14320182Y-10713746D01*
X14320182Y-10713746D02*
X14310658Y-10732793D01*
X14310658Y-10732793D02*
X14310658Y-10770889D01*
X14310658Y-10770889D02*
X14320182Y-10789936D01*
X14320182Y-10789936D02*
X14329706Y-10799460D01*
X14329706Y-10799460D02*
X14348753Y-10808984D01*
X14348753Y-10808984D02*
X14386848Y-10808984D01*
X14386848Y-10808984D02*
X14405896Y-10799460D01*
X14405896Y-10799460D02*
X14415420Y-10789936D01*
X14415420Y-10789936D02*
X14424944Y-10770889D01*
X14424944Y-10770889D02*
X14424944Y-10732793D01*
X14424944Y-10732793D02*
X14415420Y-10713746D01*
X14415420Y-10713746D02*
X14405896Y-10704222D01*
X14405896Y-10704222D02*
X14386848Y-10694698D01*
X14501134Y-10608984D02*
X14501134Y-10647079D01*
X14577325Y-10608984D02*
X14577325Y-10647079D01*
X14872563Y-10885174D02*
X14863039Y-10875650D01*
X14863039Y-10875650D02*
X14843991Y-10847079D01*
X14843991Y-10847079D02*
X14834468Y-10828031D01*
X14834468Y-10828031D02*
X14824944Y-10799460D01*
X14824944Y-10799460D02*
X14815420Y-10751841D01*
X14815420Y-10751841D02*
X14815420Y-10713746D01*
X14815420Y-10713746D02*
X14824944Y-10666127D01*
X14824944Y-10666127D02*
X14834468Y-10637555D01*
X14834468Y-10637555D02*
X14843991Y-10618508D01*
X14843991Y-10618508D02*
X14863039Y-10589936D01*
X14863039Y-10589936D02*
X14872563Y-10580412D01*
X14977325Y-10694698D02*
X14958277Y-10685174D01*
X14958277Y-10685174D02*
X14948753Y-10675650D01*
X14948753Y-10675650D02*
X14939229Y-10656603D01*
X14939229Y-10656603D02*
X14939229Y-10647079D01*
X14939229Y-10647079D02*
X14948753Y-10628031D01*
X14948753Y-10628031D02*
X14958277Y-10618508D01*
X14958277Y-10618508D02*
X14977325Y-10608984D01*
X14977325Y-10608984D02*
X15015420Y-10608984D01*
X15015420Y-10608984D02*
X15034468Y-10618508D01*
X15034468Y-10618508D02*
X15043991Y-10628031D01*
X15043991Y-10628031D02*
X15053515Y-10647079D01*
X15053515Y-10647079D02*
X15053515Y-10656603D01*
X15053515Y-10656603D02*
X15043991Y-10675650D01*
X15043991Y-10675650D02*
X15034468Y-10685174D01*
X15034468Y-10685174D02*
X15015420Y-10694698D01*
X15015420Y-10694698D02*
X14977325Y-10694698D01*
X14977325Y-10694698D02*
X14958277Y-10704222D01*
X14958277Y-10704222D02*
X14948753Y-10713746D01*
X14948753Y-10713746D02*
X14939229Y-10732793D01*
X14939229Y-10732793D02*
X14939229Y-10770889D01*
X14939229Y-10770889D02*
X14948753Y-10789936D01*
X14948753Y-10789936D02*
X14958277Y-10799460D01*
X14958277Y-10799460D02*
X14977325Y-10808984D01*
X14977325Y-10808984D02*
X15015420Y-10808984D01*
X15015420Y-10808984D02*
X15034468Y-10799460D01*
X15034468Y-10799460D02*
X15043991Y-10789936D01*
X15043991Y-10789936D02*
X15053515Y-10770889D01*
X15053515Y-10770889D02*
X15053515Y-10732793D01*
X15053515Y-10732793D02*
X15043991Y-10713746D01*
X15043991Y-10713746D02*
X15034468Y-10704222D01*
X15034468Y-10704222D02*
X15015420Y-10694698D01*
X15291610Y-10808984D02*
X15291610Y-10608984D01*
X15377325Y-10808984D02*
X15377325Y-10704222D01*
X15377325Y-10704222D02*
X15367801Y-10685174D01*
X15367801Y-10685174D02*
X15348753Y-10675650D01*
X15348753Y-10675650D02*
X15320182Y-10675650D01*
X15320182Y-10675650D02*
X15301134Y-10685174D01*
X15301134Y-10685174D02*
X15291610Y-10694698D01*
X15501134Y-10808984D02*
X15482087Y-10799460D01*
X15482087Y-10799460D02*
X15472563Y-10789936D01*
X15472563Y-10789936D02*
X15463039Y-10770889D01*
X15463039Y-10770889D02*
X15463039Y-10713746D01*
X15463039Y-10713746D02*
X15472563Y-10694698D01*
X15472563Y-10694698D02*
X15482087Y-10685174D01*
X15482087Y-10685174D02*
X15501134Y-10675650D01*
X15501134Y-10675650D02*
X15529706Y-10675650D01*
X15529706Y-10675650D02*
X15548753Y-10685174D01*
X15548753Y-10685174D02*
X15558277Y-10694698D01*
X15558277Y-10694698D02*
X15567801Y-10713746D01*
X15567801Y-10713746D02*
X15567801Y-10770889D01*
X15567801Y-10770889D02*
X15558277Y-10789936D01*
X15558277Y-10789936D02*
X15548753Y-10799460D01*
X15548753Y-10799460D02*
X15529706Y-10808984D01*
X15529706Y-10808984D02*
X15501134Y-10808984D01*
X15682087Y-10808984D02*
X15663039Y-10799460D01*
X15663039Y-10799460D02*
X15653515Y-10780412D01*
X15653515Y-10780412D02*
X15653515Y-10608984D01*
X15834468Y-10799460D02*
X15815420Y-10808984D01*
X15815420Y-10808984D02*
X15777325Y-10808984D01*
X15777325Y-10808984D02*
X15758277Y-10799460D01*
X15758277Y-10799460D02*
X15748753Y-10780412D01*
X15748753Y-10780412D02*
X15748753Y-10704222D01*
X15748753Y-10704222D02*
X15758277Y-10685174D01*
X15758277Y-10685174D02*
X15777325Y-10675650D01*
X15777325Y-10675650D02*
X15815420Y-10675650D01*
X15815420Y-10675650D02*
X15834468Y-10685174D01*
X15834468Y-10685174D02*
X15843991Y-10704222D01*
X15843991Y-10704222D02*
X15843991Y-10723270D01*
X15843991Y-10723270D02*
X15748753Y-10742317D01*
X15920182Y-10799460D02*
X15939230Y-10808984D01*
X15939230Y-10808984D02*
X15977325Y-10808984D01*
X15977325Y-10808984D02*
X15996372Y-10799460D01*
X15996372Y-10799460D02*
X16005896Y-10780412D01*
X16005896Y-10780412D02*
X16005896Y-10770889D01*
X16005896Y-10770889D02*
X15996372Y-10751841D01*
X15996372Y-10751841D02*
X15977325Y-10742317D01*
X15977325Y-10742317D02*
X15948753Y-10742317D01*
X15948753Y-10742317D02*
X15929706Y-10732793D01*
X15929706Y-10732793D02*
X15920182Y-10713746D01*
X15920182Y-10713746D02*
X15920182Y-10704222D01*
X15920182Y-10704222D02*
X15929706Y-10685174D01*
X15929706Y-10685174D02*
X15948753Y-10675650D01*
X15948753Y-10675650D02*
X15977325Y-10675650D01*
X15977325Y-10675650D02*
X15996372Y-10685174D01*
X16072563Y-10885174D02*
X16082087Y-10875650D01*
X16082087Y-10875650D02*
X16101134Y-10847079D01*
X16101134Y-10847079D02*
X16110658Y-10828031D01*
X16110658Y-10828031D02*
X16120182Y-10799460D01*
X16120182Y-10799460D02*
X16129706Y-10751841D01*
X16129706Y-10751841D02*
X16129706Y-10713746D01*
X16129706Y-10713746D02*
X16120182Y-10666127D01*
X16120182Y-10666127D02*
X16110658Y-10637555D01*
X16110658Y-10637555D02*
X16101134Y-10618508D01*
X16101134Y-10618508D02*
X16082087Y-10589936D01*
X16082087Y-10589936D02*
X16072563Y-10580412D01*
D12*
X11297500Y-10981500D02*
G75*
G02*
X11220500Y-10981500I-38500J0D01*
G01*
X11220500Y-10981500D02*
G75*
G02*
X11297500Y-10981500I38500J0D01*
G01*
D11*
X11596372Y-10872984D02*
X11615420Y-10872984D01*
X11615420Y-10872984D02*
X11634467Y-10882508D01*
X11634467Y-10882508D02*
X11643991Y-10892031D01*
X11643991Y-10892031D02*
X11653515Y-10911079D01*
X11653515Y-10911079D02*
X11663039Y-10949174D01*
X11663039Y-10949174D02*
X11663039Y-10996793D01*
X11663039Y-10996793D02*
X11653515Y-11034889D01*
X11653515Y-11034889D02*
X11643991Y-11053936D01*
X11643991Y-11053936D02*
X11634467Y-11063460D01*
X11634467Y-11063460D02*
X11615420Y-11072984D01*
X11615420Y-11072984D02*
X11596372Y-11072984D01*
X11596372Y-11072984D02*
X11577324Y-11063460D01*
X11577324Y-11063460D02*
X11567801Y-11053936D01*
X11567801Y-11053936D02*
X11558277Y-11034889D01*
X11558277Y-11034889D02*
X11548753Y-10996793D01*
X11548753Y-10996793D02*
X11548753Y-10949174D01*
X11548753Y-10949174D02*
X11558277Y-10911079D01*
X11558277Y-10911079D02*
X11567801Y-10892031D01*
X11567801Y-10892031D02*
X11577324Y-10882508D01*
X11577324Y-10882508D02*
X11596372Y-10872984D01*
X11748753Y-11053936D02*
X11758277Y-11063460D01*
X11758277Y-11063460D02*
X11748753Y-11072984D01*
X11748753Y-11072984D02*
X11739229Y-11063460D01*
X11739229Y-11063460D02*
X11748753Y-11053936D01*
X11748753Y-11053936D02*
X11748753Y-11072984D01*
X11824943Y-10872984D02*
X11958277Y-10872984D01*
X11958277Y-10872984D02*
X11872562Y-11072984D01*
X12015420Y-10872984D02*
X12148753Y-10872984D01*
X12148753Y-10872984D02*
X12063039Y-11072984D01*
X12263039Y-10872984D02*
X12282086Y-10872984D01*
X12282086Y-10872984D02*
X12301134Y-10882508D01*
X12301134Y-10882508D02*
X12310658Y-10892031D01*
X12310658Y-10892031D02*
X12320182Y-10911079D01*
X12320182Y-10911079D02*
X12329705Y-10949174D01*
X12329705Y-10949174D02*
X12329705Y-10996793D01*
X12329705Y-10996793D02*
X12320182Y-11034889D01*
X12320182Y-11034889D02*
X12310658Y-11053936D01*
X12310658Y-11053936D02*
X12301134Y-11063460D01*
X12301134Y-11063460D02*
X12282086Y-11072984D01*
X12282086Y-11072984D02*
X12263039Y-11072984D01*
X12263039Y-11072984D02*
X12243991Y-11063460D01*
X12243991Y-11063460D02*
X12234467Y-11053936D01*
X12234467Y-11053936D02*
X12224943Y-11034889D01*
X12224943Y-11034889D02*
X12215420Y-10996793D01*
X12215420Y-10996793D02*
X12215420Y-10949174D01*
X12215420Y-10949174D02*
X12224943Y-10911079D01*
X12224943Y-10911079D02*
X12234467Y-10892031D01*
X12234467Y-10892031D02*
X12243991Y-10882508D01*
X12243991Y-10882508D02*
X12263039Y-10872984D01*
X12415420Y-11072984D02*
X12415420Y-10939650D01*
X12415420Y-10958698D02*
X12424943Y-10949174D01*
X12424943Y-10949174D02*
X12443991Y-10939650D01*
X12443991Y-10939650D02*
X12472563Y-10939650D01*
X12472563Y-10939650D02*
X12491610Y-10949174D01*
X12491610Y-10949174D02*
X12501134Y-10968222D01*
X12501134Y-10968222D02*
X12501134Y-11072984D01*
X12501134Y-10968222D02*
X12510658Y-10949174D01*
X12510658Y-10949174D02*
X12529705Y-10939650D01*
X12529705Y-10939650D02*
X12558277Y-10939650D01*
X12558277Y-10939650D02*
X12577324Y-10949174D01*
X12577324Y-10949174D02*
X12586848Y-10968222D01*
X12586848Y-10968222D02*
X12586848Y-11072984D01*
X12682086Y-11072984D02*
X12682086Y-10939650D01*
X12682086Y-10958698D02*
X12691610Y-10949174D01*
X12691610Y-10949174D02*
X12710658Y-10939650D01*
X12710658Y-10939650D02*
X12739229Y-10939650D01*
X12739229Y-10939650D02*
X12758277Y-10949174D01*
X12758277Y-10949174D02*
X12767801Y-10968222D01*
X12767801Y-10968222D02*
X12767801Y-11072984D01*
X12767801Y-10968222D02*
X12777324Y-10949174D01*
X12777324Y-10949174D02*
X12796372Y-10939650D01*
X12796372Y-10939650D02*
X12824943Y-10939650D01*
X12824943Y-10939650D02*
X12843991Y-10949174D01*
X12843991Y-10949174D02*
X12853515Y-10968222D01*
X12853515Y-10968222D02*
X12853515Y-11072984D01*
X13243991Y-10863460D02*
X13072563Y-11120603D01*
X13501134Y-10872984D02*
X13520182Y-10872984D01*
X13520182Y-10872984D02*
X13539229Y-10882508D01*
X13539229Y-10882508D02*
X13548753Y-10892031D01*
X13548753Y-10892031D02*
X13558277Y-10911079D01*
X13558277Y-10911079D02*
X13567801Y-10949174D01*
X13567801Y-10949174D02*
X13567801Y-10996793D01*
X13567801Y-10996793D02*
X13558277Y-11034889D01*
X13558277Y-11034889D02*
X13548753Y-11053936D01*
X13548753Y-11053936D02*
X13539229Y-11063460D01*
X13539229Y-11063460D02*
X13520182Y-11072984D01*
X13520182Y-11072984D02*
X13501134Y-11072984D01*
X13501134Y-11072984D02*
X13482086Y-11063460D01*
X13482086Y-11063460D02*
X13472563Y-11053936D01*
X13472563Y-11053936D02*
X13463039Y-11034889D01*
X13463039Y-11034889D02*
X13453515Y-10996793D01*
X13453515Y-10996793D02*
X13453515Y-10949174D01*
X13453515Y-10949174D02*
X13463039Y-10911079D01*
X13463039Y-10911079D02*
X13472563Y-10892031D01*
X13472563Y-10892031D02*
X13482086Y-10882508D01*
X13482086Y-10882508D02*
X13501134Y-10872984D01*
X13653515Y-11053936D02*
X13663039Y-11063460D01*
X13663039Y-11063460D02*
X13653515Y-11072984D01*
X13653515Y-11072984D02*
X13643991Y-11063460D01*
X13643991Y-11063460D02*
X13653515Y-11053936D01*
X13653515Y-11053936D02*
X13653515Y-11072984D01*
X13786848Y-10872984D02*
X13805896Y-10872984D01*
X13805896Y-10872984D02*
X13824944Y-10882508D01*
X13824944Y-10882508D02*
X13834467Y-10892031D01*
X13834467Y-10892031D02*
X13843991Y-10911079D01*
X13843991Y-10911079D02*
X13853515Y-10949174D01*
X13853515Y-10949174D02*
X13853515Y-10996793D01*
X13853515Y-10996793D02*
X13843991Y-11034889D01*
X13843991Y-11034889D02*
X13834467Y-11053936D01*
X13834467Y-11053936D02*
X13824944Y-11063460D01*
X13824944Y-11063460D02*
X13805896Y-11072984D01*
X13805896Y-11072984D02*
X13786848Y-11072984D01*
X13786848Y-11072984D02*
X13767801Y-11063460D01*
X13767801Y-11063460D02*
X13758277Y-11053936D01*
X13758277Y-11053936D02*
X13748753Y-11034889D01*
X13748753Y-11034889D02*
X13739229Y-10996793D01*
X13739229Y-10996793D02*
X13739229Y-10949174D01*
X13739229Y-10949174D02*
X13748753Y-10911079D01*
X13748753Y-10911079D02*
X13758277Y-10892031D01*
X13758277Y-10892031D02*
X13767801Y-10882508D01*
X13767801Y-10882508D02*
X13786848Y-10872984D01*
X13920182Y-10872984D02*
X14043991Y-10872984D01*
X14043991Y-10872984D02*
X13977325Y-10949174D01*
X13977325Y-10949174D02*
X14005896Y-10949174D01*
X14005896Y-10949174D02*
X14024944Y-10958698D01*
X14024944Y-10958698D02*
X14034467Y-10968222D01*
X14034467Y-10968222D02*
X14043991Y-10987270D01*
X14043991Y-10987270D02*
X14043991Y-11034889D01*
X14043991Y-11034889D02*
X14034467Y-11053936D01*
X14034467Y-11053936D02*
X14024944Y-11063460D01*
X14024944Y-11063460D02*
X14005896Y-11072984D01*
X14005896Y-11072984D02*
X13948753Y-11072984D01*
X13948753Y-11072984D02*
X13929706Y-11063460D01*
X13929706Y-11063460D02*
X13920182Y-11053936D01*
X14167801Y-10872984D02*
X14186848Y-10872984D01*
X14186848Y-10872984D02*
X14205896Y-10882508D01*
X14205896Y-10882508D02*
X14215420Y-10892031D01*
X14215420Y-10892031D02*
X14224944Y-10911079D01*
X14224944Y-10911079D02*
X14234467Y-10949174D01*
X14234467Y-10949174D02*
X14234467Y-10996793D01*
X14234467Y-10996793D02*
X14224944Y-11034889D01*
X14224944Y-11034889D02*
X14215420Y-11053936D01*
X14215420Y-11053936D02*
X14205896Y-11063460D01*
X14205896Y-11063460D02*
X14186848Y-11072984D01*
X14186848Y-11072984D02*
X14167801Y-11072984D01*
X14167801Y-11072984D02*
X14148753Y-11063460D01*
X14148753Y-11063460D02*
X14139229Y-11053936D01*
X14139229Y-11053936D02*
X14129706Y-11034889D01*
X14129706Y-11034889D02*
X14120182Y-10996793D01*
X14120182Y-10996793D02*
X14120182Y-10949174D01*
X14120182Y-10949174D02*
X14129706Y-10911079D01*
X14129706Y-10911079D02*
X14139229Y-10892031D01*
X14139229Y-10892031D02*
X14148753Y-10882508D01*
X14148753Y-10882508D02*
X14167801Y-10872984D01*
X14301134Y-10872984D02*
X14424944Y-10872984D01*
X14424944Y-10872984D02*
X14358277Y-10949174D01*
X14358277Y-10949174D02*
X14386848Y-10949174D01*
X14386848Y-10949174D02*
X14405896Y-10958698D01*
X14405896Y-10958698D02*
X14415420Y-10968222D01*
X14415420Y-10968222D02*
X14424944Y-10987270D01*
X14424944Y-10987270D02*
X14424944Y-11034889D01*
X14424944Y-11034889D02*
X14415420Y-11053936D01*
X14415420Y-11053936D02*
X14405896Y-11063460D01*
X14405896Y-11063460D02*
X14386848Y-11072984D01*
X14386848Y-11072984D02*
X14329706Y-11072984D01*
X14329706Y-11072984D02*
X14310658Y-11063460D01*
X14310658Y-11063460D02*
X14301134Y-11053936D01*
X14501134Y-10872984D02*
X14501134Y-10911079D01*
X14577325Y-10872984D02*
X14577325Y-10911079D01*
X14872563Y-11149174D02*
X14863039Y-11139650D01*
X14863039Y-11139650D02*
X14843991Y-11111079D01*
X14843991Y-11111079D02*
X14834468Y-11092031D01*
X14834468Y-11092031D02*
X14824944Y-11063460D01*
X14824944Y-11063460D02*
X14815420Y-11015841D01*
X14815420Y-11015841D02*
X14815420Y-10977746D01*
X14815420Y-10977746D02*
X14824944Y-10930127D01*
X14824944Y-10930127D02*
X14834468Y-10901555D01*
X14834468Y-10901555D02*
X14843991Y-10882508D01*
X14843991Y-10882508D02*
X14863039Y-10853936D01*
X14863039Y-10853936D02*
X14872563Y-10844412D01*
X15053515Y-11072984D02*
X14939229Y-11072984D01*
X14996372Y-11072984D02*
X14996372Y-10872984D01*
X14996372Y-10872984D02*
X14977325Y-10901555D01*
X14977325Y-10901555D02*
X14958277Y-10920603D01*
X14958277Y-10920603D02*
X14939229Y-10930127D01*
X15224944Y-10939650D02*
X15224944Y-11072984D01*
X15177325Y-10863460D02*
X15129706Y-11006317D01*
X15129706Y-11006317D02*
X15253515Y-11006317D01*
X15482087Y-11072984D02*
X15482087Y-10872984D01*
X15567801Y-11072984D02*
X15567801Y-10968222D01*
X15567801Y-10968222D02*
X15558277Y-10949174D01*
X15558277Y-10949174D02*
X15539230Y-10939650D01*
X15539230Y-10939650D02*
X15510658Y-10939650D01*
X15510658Y-10939650D02*
X15491610Y-10949174D01*
X15491610Y-10949174D02*
X15482087Y-10958698D01*
X15691610Y-11072984D02*
X15672563Y-11063460D01*
X15672563Y-11063460D02*
X15663039Y-11053936D01*
X15663039Y-11053936D02*
X15653515Y-11034889D01*
X15653515Y-11034889D02*
X15653515Y-10977746D01*
X15653515Y-10977746D02*
X15663039Y-10958698D01*
X15663039Y-10958698D02*
X15672563Y-10949174D01*
X15672563Y-10949174D02*
X15691610Y-10939650D01*
X15691610Y-10939650D02*
X15720182Y-10939650D01*
X15720182Y-10939650D02*
X15739230Y-10949174D01*
X15739230Y-10949174D02*
X15748753Y-10958698D01*
X15748753Y-10958698D02*
X15758277Y-10977746D01*
X15758277Y-10977746D02*
X15758277Y-11034889D01*
X15758277Y-11034889D02*
X15748753Y-11053936D01*
X15748753Y-11053936D02*
X15739230Y-11063460D01*
X15739230Y-11063460D02*
X15720182Y-11072984D01*
X15720182Y-11072984D02*
X15691610Y-11072984D01*
X15872563Y-11072984D02*
X15853515Y-11063460D01*
X15853515Y-11063460D02*
X15843991Y-11044412D01*
X15843991Y-11044412D02*
X15843991Y-10872984D01*
X16024944Y-11063460D02*
X16005896Y-11072984D01*
X16005896Y-11072984D02*
X15967801Y-11072984D01*
X15967801Y-11072984D02*
X15948753Y-11063460D01*
X15948753Y-11063460D02*
X15939230Y-11044412D01*
X15939230Y-11044412D02*
X15939230Y-10968222D01*
X15939230Y-10968222D02*
X15948753Y-10949174D01*
X15948753Y-10949174D02*
X15967801Y-10939650D01*
X15967801Y-10939650D02*
X16005896Y-10939650D01*
X16005896Y-10939650D02*
X16024944Y-10949174D01*
X16024944Y-10949174D02*
X16034468Y-10968222D01*
X16034468Y-10968222D02*
X16034468Y-10987270D01*
X16034468Y-10987270D02*
X15939230Y-11006317D01*
X16110658Y-11063460D02*
X16129706Y-11072984D01*
X16129706Y-11072984D02*
X16167801Y-11072984D01*
X16167801Y-11072984D02*
X16186849Y-11063460D01*
X16186849Y-11063460D02*
X16196372Y-11044412D01*
X16196372Y-11044412D02*
X16196372Y-11034889D01*
X16196372Y-11034889D02*
X16186849Y-11015841D01*
X16186849Y-11015841D02*
X16167801Y-11006317D01*
X16167801Y-11006317D02*
X16139230Y-11006317D01*
X16139230Y-11006317D02*
X16120182Y-10996793D01*
X16120182Y-10996793D02*
X16110658Y-10977746D01*
X16110658Y-10977746D02*
X16110658Y-10968222D01*
X16110658Y-10968222D02*
X16120182Y-10949174D01*
X16120182Y-10949174D02*
X16139230Y-10939650D01*
X16139230Y-10939650D02*
X16167801Y-10939650D01*
X16167801Y-10939650D02*
X16186849Y-10949174D01*
X16263039Y-11149174D02*
X16272563Y-11139650D01*
X16272563Y-11139650D02*
X16291611Y-11111079D01*
X16291611Y-11111079D02*
X16301134Y-11092031D01*
X16301134Y-11092031D02*
X16310658Y-11063460D01*
X16310658Y-11063460D02*
X16320182Y-11015841D01*
X16320182Y-11015841D02*
X16320182Y-10977746D01*
X16320182Y-10977746D02*
X16310658Y-10930127D01*
X16310658Y-10930127D02*
X16301134Y-10901555D01*
X16301134Y-10901555D02*
X16291611Y-10882508D01*
X16291611Y-10882508D02*
X16272563Y-10853936D01*
X16272563Y-10853936D02*
X16263039Y-10844412D01*
D12*
X11257500Y-11205500D02*
X11257500Y-11285500D01*
X11217500Y-11245500D02*
X11297500Y-11245500D01*
D11*
X11596372Y-11136984D02*
X11615420Y-11136984D01*
X11615420Y-11136984D02*
X11634467Y-11146508D01*
X11634467Y-11146508D02*
X11643991Y-11156031D01*
X11643991Y-11156031D02*
X11653515Y-11175079D01*
X11653515Y-11175079D02*
X11663039Y-11213174D01*
X11663039Y-11213174D02*
X11663039Y-11260793D01*
X11663039Y-11260793D02*
X11653515Y-11298888D01*
X11653515Y-11298888D02*
X11643991Y-11317936D01*
X11643991Y-11317936D02*
X11634467Y-11327460D01*
X11634467Y-11327460D02*
X11615420Y-11336984D01*
X11615420Y-11336984D02*
X11596372Y-11336984D01*
X11596372Y-11336984D02*
X11577324Y-11327460D01*
X11577324Y-11327460D02*
X11567801Y-11317936D01*
X11567801Y-11317936D02*
X11558277Y-11298888D01*
X11558277Y-11298888D02*
X11548753Y-11260793D01*
X11548753Y-11260793D02*
X11548753Y-11213174D01*
X11548753Y-11213174D02*
X11558277Y-11175079D01*
X11558277Y-11175079D02*
X11567801Y-11156031D01*
X11567801Y-11156031D02*
X11577324Y-11146508D01*
X11577324Y-11146508D02*
X11596372Y-11136984D01*
X11748753Y-11317936D02*
X11758277Y-11327460D01*
X11758277Y-11327460D02*
X11748753Y-11336984D01*
X11748753Y-11336984D02*
X11739229Y-11327460D01*
X11739229Y-11327460D02*
X11748753Y-11317936D01*
X11748753Y-11317936D02*
X11748753Y-11336984D01*
X11872562Y-11222698D02*
X11853515Y-11213174D01*
X11853515Y-11213174D02*
X11843991Y-11203650D01*
X11843991Y-11203650D02*
X11834467Y-11184603D01*
X11834467Y-11184603D02*
X11834467Y-11175079D01*
X11834467Y-11175079D02*
X11843991Y-11156031D01*
X11843991Y-11156031D02*
X11853515Y-11146508D01*
X11853515Y-11146508D02*
X11872562Y-11136984D01*
X11872562Y-11136984D02*
X11910658Y-11136984D01*
X11910658Y-11136984D02*
X11929705Y-11146508D01*
X11929705Y-11146508D02*
X11939229Y-11156031D01*
X11939229Y-11156031D02*
X11948753Y-11175079D01*
X11948753Y-11175079D02*
X11948753Y-11184603D01*
X11948753Y-11184603D02*
X11939229Y-11203650D01*
X11939229Y-11203650D02*
X11929705Y-11213174D01*
X11929705Y-11213174D02*
X11910658Y-11222698D01*
X11910658Y-11222698D02*
X11872562Y-11222698D01*
X11872562Y-11222698D02*
X11853515Y-11232222D01*
X11853515Y-11232222D02*
X11843991Y-11241746D01*
X11843991Y-11241746D02*
X11834467Y-11260793D01*
X11834467Y-11260793D02*
X11834467Y-11298888D01*
X11834467Y-11298888D02*
X11843991Y-11317936D01*
X11843991Y-11317936D02*
X11853515Y-11327460D01*
X11853515Y-11327460D02*
X11872562Y-11336984D01*
X11872562Y-11336984D02*
X11910658Y-11336984D01*
X11910658Y-11336984D02*
X11929705Y-11327460D01*
X11929705Y-11327460D02*
X11939229Y-11317936D01*
X11939229Y-11317936D02*
X11948753Y-11298888D01*
X11948753Y-11298888D02*
X11948753Y-11260793D01*
X11948753Y-11260793D02*
X11939229Y-11241746D01*
X11939229Y-11241746D02*
X11929705Y-11232222D01*
X11929705Y-11232222D02*
X11910658Y-11222698D01*
X12072562Y-11136984D02*
X12091610Y-11136984D01*
X12091610Y-11136984D02*
X12110658Y-11146508D01*
X12110658Y-11146508D02*
X12120182Y-11156031D01*
X12120182Y-11156031D02*
X12129705Y-11175079D01*
X12129705Y-11175079D02*
X12139229Y-11213174D01*
X12139229Y-11213174D02*
X12139229Y-11260793D01*
X12139229Y-11260793D02*
X12129705Y-11298888D01*
X12129705Y-11298888D02*
X12120182Y-11317936D01*
X12120182Y-11317936D02*
X12110658Y-11327460D01*
X12110658Y-11327460D02*
X12091610Y-11336984D01*
X12091610Y-11336984D02*
X12072562Y-11336984D01*
X12072562Y-11336984D02*
X12053515Y-11327460D01*
X12053515Y-11327460D02*
X12043991Y-11317936D01*
X12043991Y-11317936D02*
X12034467Y-11298888D01*
X12034467Y-11298888D02*
X12024943Y-11260793D01*
X12024943Y-11260793D02*
X12024943Y-11213174D01*
X12024943Y-11213174D02*
X12034467Y-11175079D01*
X12034467Y-11175079D02*
X12043991Y-11156031D01*
X12043991Y-11156031D02*
X12053515Y-11146508D01*
X12053515Y-11146508D02*
X12072562Y-11136984D01*
X12263039Y-11136984D02*
X12282086Y-11136984D01*
X12282086Y-11136984D02*
X12301134Y-11146508D01*
X12301134Y-11146508D02*
X12310658Y-11156031D01*
X12310658Y-11156031D02*
X12320182Y-11175079D01*
X12320182Y-11175079D02*
X12329705Y-11213174D01*
X12329705Y-11213174D02*
X12329705Y-11260793D01*
X12329705Y-11260793D02*
X12320182Y-11298888D01*
X12320182Y-11298888D02*
X12310658Y-11317936D01*
X12310658Y-11317936D02*
X12301134Y-11327460D01*
X12301134Y-11327460D02*
X12282086Y-11336984D01*
X12282086Y-11336984D02*
X12263039Y-11336984D01*
X12263039Y-11336984D02*
X12243991Y-11327460D01*
X12243991Y-11327460D02*
X12234467Y-11317936D01*
X12234467Y-11317936D02*
X12224943Y-11298888D01*
X12224943Y-11298888D02*
X12215420Y-11260793D01*
X12215420Y-11260793D02*
X12215420Y-11213174D01*
X12215420Y-11213174D02*
X12224943Y-11175079D01*
X12224943Y-11175079D02*
X12234467Y-11156031D01*
X12234467Y-11156031D02*
X12243991Y-11146508D01*
X12243991Y-11146508D02*
X12263039Y-11136984D01*
X12415420Y-11336984D02*
X12415420Y-11203650D01*
X12415420Y-11222698D02*
X12424943Y-11213174D01*
X12424943Y-11213174D02*
X12443991Y-11203650D01*
X12443991Y-11203650D02*
X12472563Y-11203650D01*
X12472563Y-11203650D02*
X12491610Y-11213174D01*
X12491610Y-11213174D02*
X12501134Y-11232222D01*
X12501134Y-11232222D02*
X12501134Y-11336984D01*
X12501134Y-11232222D02*
X12510658Y-11213174D01*
X12510658Y-11213174D02*
X12529705Y-11203650D01*
X12529705Y-11203650D02*
X12558277Y-11203650D01*
X12558277Y-11203650D02*
X12577324Y-11213174D01*
X12577324Y-11213174D02*
X12586848Y-11232222D01*
X12586848Y-11232222D02*
X12586848Y-11336984D01*
X12682086Y-11336984D02*
X12682086Y-11203650D01*
X12682086Y-11222698D02*
X12691610Y-11213174D01*
X12691610Y-11213174D02*
X12710658Y-11203650D01*
X12710658Y-11203650D02*
X12739229Y-11203650D01*
X12739229Y-11203650D02*
X12758277Y-11213174D01*
X12758277Y-11213174D02*
X12767801Y-11232222D01*
X12767801Y-11232222D02*
X12767801Y-11336984D01*
X12767801Y-11232222D02*
X12777324Y-11213174D01*
X12777324Y-11213174D02*
X12796372Y-11203650D01*
X12796372Y-11203650D02*
X12824943Y-11203650D01*
X12824943Y-11203650D02*
X12843991Y-11213174D01*
X12843991Y-11213174D02*
X12853515Y-11232222D01*
X12853515Y-11232222D02*
X12853515Y-11336984D01*
X13243991Y-11127460D02*
X13072563Y-11384603D01*
X13501134Y-11136984D02*
X13520182Y-11136984D01*
X13520182Y-11136984D02*
X13539229Y-11146508D01*
X13539229Y-11146508D02*
X13548753Y-11156031D01*
X13548753Y-11156031D02*
X13558277Y-11175079D01*
X13558277Y-11175079D02*
X13567801Y-11213174D01*
X13567801Y-11213174D02*
X13567801Y-11260793D01*
X13567801Y-11260793D02*
X13558277Y-11298888D01*
X13558277Y-11298888D02*
X13548753Y-11317936D01*
X13548753Y-11317936D02*
X13539229Y-11327460D01*
X13539229Y-11327460D02*
X13520182Y-11336984D01*
X13520182Y-11336984D02*
X13501134Y-11336984D01*
X13501134Y-11336984D02*
X13482086Y-11327460D01*
X13482086Y-11327460D02*
X13472563Y-11317936D01*
X13472563Y-11317936D02*
X13463039Y-11298888D01*
X13463039Y-11298888D02*
X13453515Y-11260793D01*
X13453515Y-11260793D02*
X13453515Y-11213174D01*
X13453515Y-11213174D02*
X13463039Y-11175079D01*
X13463039Y-11175079D02*
X13472563Y-11156031D01*
X13472563Y-11156031D02*
X13482086Y-11146508D01*
X13482086Y-11146508D02*
X13501134Y-11136984D01*
X13653515Y-11317936D02*
X13663039Y-11327460D01*
X13663039Y-11327460D02*
X13653515Y-11336984D01*
X13653515Y-11336984D02*
X13643991Y-11327460D01*
X13643991Y-11327460D02*
X13653515Y-11317936D01*
X13653515Y-11317936D02*
X13653515Y-11336984D01*
X13786848Y-11136984D02*
X13805896Y-11136984D01*
X13805896Y-11136984D02*
X13824944Y-11146508D01*
X13824944Y-11146508D02*
X13834467Y-11156031D01*
X13834467Y-11156031D02*
X13843991Y-11175079D01*
X13843991Y-11175079D02*
X13853515Y-11213174D01*
X13853515Y-11213174D02*
X13853515Y-11260793D01*
X13853515Y-11260793D02*
X13843991Y-11298888D01*
X13843991Y-11298888D02*
X13834467Y-11317936D01*
X13834467Y-11317936D02*
X13824944Y-11327460D01*
X13824944Y-11327460D02*
X13805896Y-11336984D01*
X13805896Y-11336984D02*
X13786848Y-11336984D01*
X13786848Y-11336984D02*
X13767801Y-11327460D01*
X13767801Y-11327460D02*
X13758277Y-11317936D01*
X13758277Y-11317936D02*
X13748753Y-11298888D01*
X13748753Y-11298888D02*
X13739229Y-11260793D01*
X13739229Y-11260793D02*
X13739229Y-11213174D01*
X13739229Y-11213174D02*
X13748753Y-11175079D01*
X13748753Y-11175079D02*
X13758277Y-11156031D01*
X13758277Y-11156031D02*
X13767801Y-11146508D01*
X13767801Y-11146508D02*
X13786848Y-11136984D01*
X13920182Y-11136984D02*
X14043991Y-11136984D01*
X14043991Y-11136984D02*
X13977325Y-11213174D01*
X13977325Y-11213174D02*
X14005896Y-11213174D01*
X14005896Y-11213174D02*
X14024944Y-11222698D01*
X14024944Y-11222698D02*
X14034467Y-11232222D01*
X14034467Y-11232222D02*
X14043991Y-11251269D01*
X14043991Y-11251269D02*
X14043991Y-11298888D01*
X14043991Y-11298888D02*
X14034467Y-11317936D01*
X14034467Y-11317936D02*
X14024944Y-11327460D01*
X14024944Y-11327460D02*
X14005896Y-11336984D01*
X14005896Y-11336984D02*
X13948753Y-11336984D01*
X13948753Y-11336984D02*
X13929706Y-11327460D01*
X13929706Y-11327460D02*
X13920182Y-11317936D01*
X14234467Y-11336984D02*
X14120182Y-11336984D01*
X14177325Y-11336984D02*
X14177325Y-11136984D01*
X14177325Y-11136984D02*
X14158277Y-11165555D01*
X14158277Y-11165555D02*
X14139229Y-11184603D01*
X14139229Y-11184603D02*
X14120182Y-11194127D01*
X14415420Y-11136984D02*
X14320182Y-11136984D01*
X14320182Y-11136984D02*
X14310658Y-11232222D01*
X14310658Y-11232222D02*
X14320182Y-11222698D01*
X14320182Y-11222698D02*
X14339229Y-11213174D01*
X14339229Y-11213174D02*
X14386848Y-11213174D01*
X14386848Y-11213174D02*
X14405896Y-11222698D01*
X14405896Y-11222698D02*
X14415420Y-11232222D01*
X14415420Y-11232222D02*
X14424944Y-11251269D01*
X14424944Y-11251269D02*
X14424944Y-11298888D01*
X14424944Y-11298888D02*
X14415420Y-11317936D01*
X14415420Y-11317936D02*
X14405896Y-11327460D01*
X14405896Y-11327460D02*
X14386848Y-11336984D01*
X14386848Y-11336984D02*
X14339229Y-11336984D01*
X14339229Y-11336984D02*
X14320182Y-11327460D01*
X14320182Y-11327460D02*
X14310658Y-11317936D01*
X14501134Y-11136984D02*
X14501134Y-11175079D01*
X14577325Y-11136984D02*
X14577325Y-11175079D01*
X14872563Y-11413174D02*
X14863039Y-11403650D01*
X14863039Y-11403650D02*
X14843991Y-11375079D01*
X14843991Y-11375079D02*
X14834468Y-11356031D01*
X14834468Y-11356031D02*
X14824944Y-11327460D01*
X14824944Y-11327460D02*
X14815420Y-11279841D01*
X14815420Y-11279841D02*
X14815420Y-11241746D01*
X14815420Y-11241746D02*
X14824944Y-11194127D01*
X14824944Y-11194127D02*
X14834468Y-11165555D01*
X14834468Y-11165555D02*
X14843991Y-11146508D01*
X14843991Y-11146508D02*
X14863039Y-11117936D01*
X14863039Y-11117936D02*
X14872563Y-11108412D01*
X14977325Y-11222698D02*
X14958277Y-11213174D01*
X14958277Y-11213174D02*
X14948753Y-11203650D01*
X14948753Y-11203650D02*
X14939229Y-11184603D01*
X14939229Y-11184603D02*
X14939229Y-11175079D01*
X14939229Y-11175079D02*
X14948753Y-11156031D01*
X14948753Y-11156031D02*
X14958277Y-11146508D01*
X14958277Y-11146508D02*
X14977325Y-11136984D01*
X14977325Y-11136984D02*
X15015420Y-11136984D01*
X15015420Y-11136984D02*
X15034468Y-11146508D01*
X15034468Y-11146508D02*
X15043991Y-11156031D01*
X15043991Y-11156031D02*
X15053515Y-11175079D01*
X15053515Y-11175079D02*
X15053515Y-11184603D01*
X15053515Y-11184603D02*
X15043991Y-11203650D01*
X15043991Y-11203650D02*
X15034468Y-11213174D01*
X15034468Y-11213174D02*
X15015420Y-11222698D01*
X15015420Y-11222698D02*
X14977325Y-11222698D01*
X14977325Y-11222698D02*
X14958277Y-11232222D01*
X14958277Y-11232222D02*
X14948753Y-11241746D01*
X14948753Y-11241746D02*
X14939229Y-11260793D01*
X14939229Y-11260793D02*
X14939229Y-11298888D01*
X14939229Y-11298888D02*
X14948753Y-11317936D01*
X14948753Y-11317936D02*
X14958277Y-11327460D01*
X14958277Y-11327460D02*
X14977325Y-11336984D01*
X14977325Y-11336984D02*
X15015420Y-11336984D01*
X15015420Y-11336984D02*
X15034468Y-11327460D01*
X15034468Y-11327460D02*
X15043991Y-11317936D01*
X15043991Y-11317936D02*
X15053515Y-11298888D01*
X15053515Y-11298888D02*
X15053515Y-11260793D01*
X15053515Y-11260793D02*
X15043991Y-11241746D01*
X15043991Y-11241746D02*
X15034468Y-11232222D01*
X15034468Y-11232222D02*
X15015420Y-11222698D01*
X15291610Y-11336984D02*
X15291610Y-11136984D01*
X15377325Y-11336984D02*
X15377325Y-11232222D01*
X15377325Y-11232222D02*
X15367801Y-11213174D01*
X15367801Y-11213174D02*
X15348753Y-11203650D01*
X15348753Y-11203650D02*
X15320182Y-11203650D01*
X15320182Y-11203650D02*
X15301134Y-11213174D01*
X15301134Y-11213174D02*
X15291610Y-11222698D01*
X15501134Y-11336984D02*
X15482087Y-11327460D01*
X15482087Y-11327460D02*
X15472563Y-11317936D01*
X15472563Y-11317936D02*
X15463039Y-11298888D01*
X15463039Y-11298888D02*
X15463039Y-11241746D01*
X15463039Y-11241746D02*
X15472563Y-11222698D01*
X15472563Y-11222698D02*
X15482087Y-11213174D01*
X15482087Y-11213174D02*
X15501134Y-11203650D01*
X15501134Y-11203650D02*
X15529706Y-11203650D01*
X15529706Y-11203650D02*
X15548753Y-11213174D01*
X15548753Y-11213174D02*
X15558277Y-11222698D01*
X15558277Y-11222698D02*
X15567801Y-11241746D01*
X15567801Y-11241746D02*
X15567801Y-11298888D01*
X15567801Y-11298888D02*
X15558277Y-11317936D01*
X15558277Y-11317936D02*
X15548753Y-11327460D01*
X15548753Y-11327460D02*
X15529706Y-11336984D01*
X15529706Y-11336984D02*
X15501134Y-11336984D01*
X15682087Y-11336984D02*
X15663039Y-11327460D01*
X15663039Y-11327460D02*
X15653515Y-11308412D01*
X15653515Y-11308412D02*
X15653515Y-11136984D01*
X15834468Y-11327460D02*
X15815420Y-11336984D01*
X15815420Y-11336984D02*
X15777325Y-11336984D01*
X15777325Y-11336984D02*
X15758277Y-11327460D01*
X15758277Y-11327460D02*
X15748753Y-11308412D01*
X15748753Y-11308412D02*
X15748753Y-11232222D01*
X15748753Y-11232222D02*
X15758277Y-11213174D01*
X15758277Y-11213174D02*
X15777325Y-11203650D01*
X15777325Y-11203650D02*
X15815420Y-11203650D01*
X15815420Y-11203650D02*
X15834468Y-11213174D01*
X15834468Y-11213174D02*
X15843991Y-11232222D01*
X15843991Y-11232222D02*
X15843991Y-11251269D01*
X15843991Y-11251269D02*
X15748753Y-11270317D01*
X15920182Y-11327460D02*
X15939230Y-11336984D01*
X15939230Y-11336984D02*
X15977325Y-11336984D01*
X15977325Y-11336984D02*
X15996372Y-11327460D01*
X15996372Y-11327460D02*
X16005896Y-11308412D01*
X16005896Y-11308412D02*
X16005896Y-11298888D01*
X16005896Y-11298888D02*
X15996372Y-11279841D01*
X15996372Y-11279841D02*
X15977325Y-11270317D01*
X15977325Y-11270317D02*
X15948753Y-11270317D01*
X15948753Y-11270317D02*
X15929706Y-11260793D01*
X15929706Y-11260793D02*
X15920182Y-11241746D01*
X15920182Y-11241746D02*
X15920182Y-11232222D01*
X15920182Y-11232222D02*
X15929706Y-11213174D01*
X15929706Y-11213174D02*
X15948753Y-11203650D01*
X15948753Y-11203650D02*
X15977325Y-11203650D01*
X15977325Y-11203650D02*
X15996372Y-11213174D01*
X16072563Y-11413174D02*
X16082087Y-11403650D01*
X16082087Y-11403650D02*
X16101134Y-11375079D01*
X16101134Y-11375079D02*
X16110658Y-11356031D01*
X16110658Y-11356031D02*
X16120182Y-11327460D01*
X16120182Y-11327460D02*
X16129706Y-11279841D01*
X16129706Y-11279841D02*
X16129706Y-11241746D01*
X16129706Y-11241746D02*
X16120182Y-11194127D01*
X16120182Y-11194127D02*
X16110658Y-11165555D01*
X16110658Y-11165555D02*
X16101134Y-11146508D01*
X16101134Y-11146508D02*
X16082087Y-11117936D01*
X16082087Y-11117936D02*
X16072563Y-11108412D01*
D12*
X11283588Y-11543088D02*
X11283588Y-11475912D01*
X11216412Y-11475912D01*
X11216412Y-11543088D01*
X11283588Y-11543088D01*
D11*
X11596372Y-11400984D02*
X11615420Y-11400984D01*
X11615420Y-11400984D02*
X11634467Y-11410508D01*
X11634467Y-11410508D02*
X11643991Y-11420031D01*
X11643991Y-11420031D02*
X11653515Y-11439079D01*
X11653515Y-11439079D02*
X11663039Y-11477174D01*
X11663039Y-11477174D02*
X11663039Y-11524793D01*
X11663039Y-11524793D02*
X11653515Y-11562888D01*
X11653515Y-11562888D02*
X11643991Y-11581936D01*
X11643991Y-11581936D02*
X11634467Y-11591460D01*
X11634467Y-11591460D02*
X11615420Y-11600984D01*
X11615420Y-11600984D02*
X11596372Y-11600984D01*
X11596372Y-11600984D02*
X11577324Y-11591460D01*
X11577324Y-11591460D02*
X11567801Y-11581936D01*
X11567801Y-11581936D02*
X11558277Y-11562888D01*
X11558277Y-11562888D02*
X11548753Y-11524793D01*
X11548753Y-11524793D02*
X11548753Y-11477174D01*
X11548753Y-11477174D02*
X11558277Y-11439079D01*
X11558277Y-11439079D02*
X11567801Y-11420031D01*
X11567801Y-11420031D02*
X11577324Y-11410508D01*
X11577324Y-11410508D02*
X11596372Y-11400984D01*
X11748753Y-11581936D02*
X11758277Y-11591460D01*
X11758277Y-11591460D02*
X11748753Y-11600984D01*
X11748753Y-11600984D02*
X11739229Y-11591460D01*
X11739229Y-11591460D02*
X11748753Y-11581936D01*
X11748753Y-11581936D02*
X11748753Y-11600984D01*
X11853515Y-11600984D02*
X11891610Y-11600984D01*
X11891610Y-11600984D02*
X11910658Y-11591460D01*
X11910658Y-11591460D02*
X11920182Y-11581936D01*
X11920182Y-11581936D02*
X11939229Y-11553365D01*
X11939229Y-11553365D02*
X11948753Y-11515269D01*
X11948753Y-11515269D02*
X11948753Y-11439079D01*
X11948753Y-11439079D02*
X11939229Y-11420031D01*
X11939229Y-11420031D02*
X11929705Y-11410508D01*
X11929705Y-11410508D02*
X11910658Y-11400984D01*
X11910658Y-11400984D02*
X11872562Y-11400984D01*
X11872562Y-11400984D02*
X11853515Y-11410508D01*
X11853515Y-11410508D02*
X11843991Y-11420031D01*
X11843991Y-11420031D02*
X11834467Y-11439079D01*
X11834467Y-11439079D02*
X11834467Y-11486698D01*
X11834467Y-11486698D02*
X11843991Y-11505746D01*
X11843991Y-11505746D02*
X11853515Y-11515269D01*
X11853515Y-11515269D02*
X11872562Y-11524793D01*
X11872562Y-11524793D02*
X11910658Y-11524793D01*
X11910658Y-11524793D02*
X11929705Y-11515269D01*
X11929705Y-11515269D02*
X11939229Y-11505746D01*
X11939229Y-11505746D02*
X11948753Y-11486698D01*
X12129705Y-11400984D02*
X12034467Y-11400984D01*
X12034467Y-11400984D02*
X12024943Y-11496222D01*
X12024943Y-11496222D02*
X12034467Y-11486698D01*
X12034467Y-11486698D02*
X12053515Y-11477174D01*
X12053515Y-11477174D02*
X12101134Y-11477174D01*
X12101134Y-11477174D02*
X12120182Y-11486698D01*
X12120182Y-11486698D02*
X12129705Y-11496222D01*
X12129705Y-11496222D02*
X12139229Y-11515269D01*
X12139229Y-11515269D02*
X12139229Y-11562888D01*
X12139229Y-11562888D02*
X12129705Y-11581936D01*
X12129705Y-11581936D02*
X12120182Y-11591460D01*
X12120182Y-11591460D02*
X12101134Y-11600984D01*
X12101134Y-11600984D02*
X12053515Y-11600984D01*
X12053515Y-11600984D02*
X12034467Y-11591460D01*
X12034467Y-11591460D02*
X12024943Y-11581936D01*
X12263039Y-11400984D02*
X12282086Y-11400984D01*
X12282086Y-11400984D02*
X12301134Y-11410508D01*
X12301134Y-11410508D02*
X12310658Y-11420031D01*
X12310658Y-11420031D02*
X12320182Y-11439079D01*
X12320182Y-11439079D02*
X12329705Y-11477174D01*
X12329705Y-11477174D02*
X12329705Y-11524793D01*
X12329705Y-11524793D02*
X12320182Y-11562888D01*
X12320182Y-11562888D02*
X12310658Y-11581936D01*
X12310658Y-11581936D02*
X12301134Y-11591460D01*
X12301134Y-11591460D02*
X12282086Y-11600984D01*
X12282086Y-11600984D02*
X12263039Y-11600984D01*
X12263039Y-11600984D02*
X12243991Y-11591460D01*
X12243991Y-11591460D02*
X12234467Y-11581936D01*
X12234467Y-11581936D02*
X12224943Y-11562888D01*
X12224943Y-11562888D02*
X12215420Y-11524793D01*
X12215420Y-11524793D02*
X12215420Y-11477174D01*
X12215420Y-11477174D02*
X12224943Y-11439079D01*
X12224943Y-11439079D02*
X12234467Y-11420031D01*
X12234467Y-11420031D02*
X12243991Y-11410508D01*
X12243991Y-11410508D02*
X12263039Y-11400984D01*
X12415420Y-11600984D02*
X12415420Y-11467650D01*
X12415420Y-11486698D02*
X12424943Y-11477174D01*
X12424943Y-11477174D02*
X12443991Y-11467650D01*
X12443991Y-11467650D02*
X12472563Y-11467650D01*
X12472563Y-11467650D02*
X12491610Y-11477174D01*
X12491610Y-11477174D02*
X12501134Y-11496222D01*
X12501134Y-11496222D02*
X12501134Y-11600984D01*
X12501134Y-11496222D02*
X12510658Y-11477174D01*
X12510658Y-11477174D02*
X12529705Y-11467650D01*
X12529705Y-11467650D02*
X12558277Y-11467650D01*
X12558277Y-11467650D02*
X12577324Y-11477174D01*
X12577324Y-11477174D02*
X12586848Y-11496222D01*
X12586848Y-11496222D02*
X12586848Y-11600984D01*
X12682086Y-11600984D02*
X12682086Y-11467650D01*
X12682086Y-11486698D02*
X12691610Y-11477174D01*
X12691610Y-11477174D02*
X12710658Y-11467650D01*
X12710658Y-11467650D02*
X12739229Y-11467650D01*
X12739229Y-11467650D02*
X12758277Y-11477174D01*
X12758277Y-11477174D02*
X12767801Y-11496222D01*
X12767801Y-11496222D02*
X12767801Y-11600984D01*
X12767801Y-11496222D02*
X12777324Y-11477174D01*
X12777324Y-11477174D02*
X12796372Y-11467650D01*
X12796372Y-11467650D02*
X12824943Y-11467650D01*
X12824943Y-11467650D02*
X12843991Y-11477174D01*
X12843991Y-11477174D02*
X12853515Y-11496222D01*
X12853515Y-11496222D02*
X12853515Y-11600984D01*
X13243991Y-11391460D02*
X13072563Y-11648603D01*
X13501134Y-11400984D02*
X13520182Y-11400984D01*
X13520182Y-11400984D02*
X13539229Y-11410508D01*
X13539229Y-11410508D02*
X13548753Y-11420031D01*
X13548753Y-11420031D02*
X13558277Y-11439079D01*
X13558277Y-11439079D02*
X13567801Y-11477174D01*
X13567801Y-11477174D02*
X13567801Y-11524793D01*
X13567801Y-11524793D02*
X13558277Y-11562888D01*
X13558277Y-11562888D02*
X13548753Y-11581936D01*
X13548753Y-11581936D02*
X13539229Y-11591460D01*
X13539229Y-11591460D02*
X13520182Y-11600984D01*
X13520182Y-11600984D02*
X13501134Y-11600984D01*
X13501134Y-11600984D02*
X13482086Y-11591460D01*
X13482086Y-11591460D02*
X13472563Y-11581936D01*
X13472563Y-11581936D02*
X13463039Y-11562888D01*
X13463039Y-11562888D02*
X13453515Y-11524793D01*
X13453515Y-11524793D02*
X13453515Y-11477174D01*
X13453515Y-11477174D02*
X13463039Y-11439079D01*
X13463039Y-11439079D02*
X13472563Y-11420031D01*
X13472563Y-11420031D02*
X13482086Y-11410508D01*
X13482086Y-11410508D02*
X13501134Y-11400984D01*
X13653515Y-11581936D02*
X13663039Y-11591460D01*
X13663039Y-11591460D02*
X13653515Y-11600984D01*
X13653515Y-11600984D02*
X13643991Y-11591460D01*
X13643991Y-11591460D02*
X13653515Y-11581936D01*
X13653515Y-11581936D02*
X13653515Y-11600984D01*
X13786848Y-11400984D02*
X13805896Y-11400984D01*
X13805896Y-11400984D02*
X13824944Y-11410508D01*
X13824944Y-11410508D02*
X13834467Y-11420031D01*
X13834467Y-11420031D02*
X13843991Y-11439079D01*
X13843991Y-11439079D02*
X13853515Y-11477174D01*
X13853515Y-11477174D02*
X13853515Y-11524793D01*
X13853515Y-11524793D02*
X13843991Y-11562888D01*
X13843991Y-11562888D02*
X13834467Y-11581936D01*
X13834467Y-11581936D02*
X13824944Y-11591460D01*
X13824944Y-11591460D02*
X13805896Y-11600984D01*
X13805896Y-11600984D02*
X13786848Y-11600984D01*
X13786848Y-11600984D02*
X13767801Y-11591460D01*
X13767801Y-11591460D02*
X13758277Y-11581936D01*
X13758277Y-11581936D02*
X13748753Y-11562888D01*
X13748753Y-11562888D02*
X13739229Y-11524793D01*
X13739229Y-11524793D02*
X13739229Y-11477174D01*
X13739229Y-11477174D02*
X13748753Y-11439079D01*
X13748753Y-11439079D02*
X13758277Y-11420031D01*
X13758277Y-11420031D02*
X13767801Y-11410508D01*
X13767801Y-11410508D02*
X13786848Y-11400984D01*
X13920182Y-11400984D02*
X14043991Y-11400984D01*
X14043991Y-11400984D02*
X13977325Y-11477174D01*
X13977325Y-11477174D02*
X14005896Y-11477174D01*
X14005896Y-11477174D02*
X14024944Y-11486698D01*
X14024944Y-11486698D02*
X14034467Y-11496222D01*
X14034467Y-11496222D02*
X14043991Y-11515269D01*
X14043991Y-11515269D02*
X14043991Y-11562888D01*
X14043991Y-11562888D02*
X14034467Y-11581936D01*
X14034467Y-11581936D02*
X14024944Y-11591460D01*
X14024944Y-11591460D02*
X14005896Y-11600984D01*
X14005896Y-11600984D02*
X13948753Y-11600984D01*
X13948753Y-11600984D02*
X13929706Y-11591460D01*
X13929706Y-11591460D02*
X13920182Y-11581936D01*
X14110658Y-11400984D02*
X14243991Y-11400984D01*
X14243991Y-11400984D02*
X14158277Y-11600984D01*
X14405896Y-11467650D02*
X14405896Y-11600984D01*
X14358277Y-11391460D02*
X14310658Y-11534317D01*
X14310658Y-11534317D02*
X14434467Y-11534317D01*
X14501134Y-11400984D02*
X14501134Y-11439079D01*
X14577325Y-11400984D02*
X14577325Y-11439079D01*
X14872563Y-11677174D02*
X14863039Y-11667650D01*
X14863039Y-11667650D02*
X14843991Y-11639079D01*
X14843991Y-11639079D02*
X14834468Y-11620031D01*
X14834468Y-11620031D02*
X14824944Y-11591460D01*
X14824944Y-11591460D02*
X14815420Y-11543841D01*
X14815420Y-11543841D02*
X14815420Y-11505746D01*
X14815420Y-11505746D02*
X14824944Y-11458127D01*
X14824944Y-11458127D02*
X14834468Y-11429555D01*
X14834468Y-11429555D02*
X14843991Y-11410508D01*
X14843991Y-11410508D02*
X14863039Y-11381936D01*
X14863039Y-11381936D02*
X14872563Y-11372412D01*
X15053515Y-11600984D02*
X14939229Y-11600984D01*
X14996372Y-11600984D02*
X14996372Y-11400984D01*
X14996372Y-11400984D02*
X14977325Y-11429555D01*
X14977325Y-11429555D02*
X14958277Y-11448603D01*
X14958277Y-11448603D02*
X14939229Y-11458127D01*
X15243991Y-11600984D02*
X15129706Y-11600984D01*
X15186848Y-11600984D02*
X15186848Y-11400984D01*
X15186848Y-11400984D02*
X15167801Y-11429555D01*
X15167801Y-11429555D02*
X15148753Y-11448603D01*
X15148753Y-11448603D02*
X15129706Y-11458127D01*
X15482087Y-11600984D02*
X15482087Y-11400984D01*
X15567801Y-11600984D02*
X15567801Y-11496222D01*
X15567801Y-11496222D02*
X15558277Y-11477174D01*
X15558277Y-11477174D02*
X15539230Y-11467650D01*
X15539230Y-11467650D02*
X15510658Y-11467650D01*
X15510658Y-11467650D02*
X15491610Y-11477174D01*
X15491610Y-11477174D02*
X15482087Y-11486698D01*
X15691610Y-11600984D02*
X15672563Y-11591460D01*
X15672563Y-11591460D02*
X15663039Y-11581936D01*
X15663039Y-11581936D02*
X15653515Y-11562888D01*
X15653515Y-11562888D02*
X15653515Y-11505746D01*
X15653515Y-11505746D02*
X15663039Y-11486698D01*
X15663039Y-11486698D02*
X15672563Y-11477174D01*
X15672563Y-11477174D02*
X15691610Y-11467650D01*
X15691610Y-11467650D02*
X15720182Y-11467650D01*
X15720182Y-11467650D02*
X15739230Y-11477174D01*
X15739230Y-11477174D02*
X15748753Y-11486698D01*
X15748753Y-11486698D02*
X15758277Y-11505746D01*
X15758277Y-11505746D02*
X15758277Y-11562888D01*
X15758277Y-11562888D02*
X15748753Y-11581936D01*
X15748753Y-11581936D02*
X15739230Y-11591460D01*
X15739230Y-11591460D02*
X15720182Y-11600984D01*
X15720182Y-11600984D02*
X15691610Y-11600984D01*
X15872563Y-11600984D02*
X15853515Y-11591460D01*
X15853515Y-11591460D02*
X15843991Y-11572412D01*
X15843991Y-11572412D02*
X15843991Y-11400984D01*
X16024944Y-11591460D02*
X16005896Y-11600984D01*
X16005896Y-11600984D02*
X15967801Y-11600984D01*
X15967801Y-11600984D02*
X15948753Y-11591460D01*
X15948753Y-11591460D02*
X15939230Y-11572412D01*
X15939230Y-11572412D02*
X15939230Y-11496222D01*
X15939230Y-11496222D02*
X15948753Y-11477174D01*
X15948753Y-11477174D02*
X15967801Y-11467650D01*
X15967801Y-11467650D02*
X16005896Y-11467650D01*
X16005896Y-11467650D02*
X16024944Y-11477174D01*
X16024944Y-11477174D02*
X16034468Y-11496222D01*
X16034468Y-11496222D02*
X16034468Y-11515269D01*
X16034468Y-11515269D02*
X15939230Y-11534317D01*
X16110658Y-11591460D02*
X16129706Y-11600984D01*
X16129706Y-11600984D02*
X16167801Y-11600984D01*
X16167801Y-11600984D02*
X16186849Y-11591460D01*
X16186849Y-11591460D02*
X16196372Y-11572412D01*
X16196372Y-11572412D02*
X16196372Y-11562888D01*
X16196372Y-11562888D02*
X16186849Y-11543841D01*
X16186849Y-11543841D02*
X16167801Y-11534317D01*
X16167801Y-11534317D02*
X16139230Y-11534317D01*
X16139230Y-11534317D02*
X16120182Y-11524793D01*
X16120182Y-11524793D02*
X16110658Y-11505746D01*
X16110658Y-11505746D02*
X16110658Y-11496222D01*
X16110658Y-11496222D02*
X16120182Y-11477174D01*
X16120182Y-11477174D02*
X16139230Y-11467650D01*
X16139230Y-11467650D02*
X16167801Y-11467650D01*
X16167801Y-11467650D02*
X16186849Y-11477174D01*
X16263039Y-11677174D02*
X16272563Y-11667650D01*
X16272563Y-11667650D02*
X16291611Y-11639079D01*
X16291611Y-11639079D02*
X16301134Y-11620031D01*
X16301134Y-11620031D02*
X16310658Y-11591460D01*
X16310658Y-11591460D02*
X16320182Y-11543841D01*
X16320182Y-11543841D02*
X16320182Y-11505746D01*
X16320182Y-11505746D02*
X16310658Y-11458127D01*
X16310658Y-11458127D02*
X16301134Y-11429555D01*
X16301134Y-11429555D02*
X16291611Y-11410508D01*
X16291611Y-11410508D02*
X16272563Y-11381936D01*
X16272563Y-11381936D02*
X16263039Y-11372412D01*
D12*
X11247500Y-11823500D02*
X11297500Y-11773500D01*
X11247500Y-11723500D01*
X11197500Y-11773500D01*
X11247500Y-11823500D01*
D11*
X11663039Y-11864984D02*
X11548753Y-11864984D01*
X11605896Y-11864984D02*
X11605896Y-11664984D01*
X11605896Y-11664984D02*
X11586848Y-11693555D01*
X11586848Y-11693555D02*
X11567801Y-11712603D01*
X11567801Y-11712603D02*
X11548753Y-11722127D01*
X11748753Y-11845936D02*
X11758277Y-11855460D01*
X11758277Y-11855460D02*
X11748753Y-11864984D01*
X11748753Y-11864984D02*
X11739229Y-11855460D01*
X11739229Y-11855460D02*
X11748753Y-11845936D01*
X11748753Y-11845936D02*
X11748753Y-11864984D01*
X11882086Y-11664984D02*
X11901134Y-11664984D01*
X11901134Y-11664984D02*
X11920182Y-11674508D01*
X11920182Y-11674508D02*
X11929705Y-11684031D01*
X11929705Y-11684031D02*
X11939229Y-11703079D01*
X11939229Y-11703079D02*
X11948753Y-11741174D01*
X11948753Y-11741174D02*
X11948753Y-11788793D01*
X11948753Y-11788793D02*
X11939229Y-11826888D01*
X11939229Y-11826888D02*
X11929705Y-11845936D01*
X11929705Y-11845936D02*
X11920182Y-11855460D01*
X11920182Y-11855460D02*
X11901134Y-11864984D01*
X11901134Y-11864984D02*
X11882086Y-11864984D01*
X11882086Y-11864984D02*
X11863039Y-11855460D01*
X11863039Y-11855460D02*
X11853515Y-11845936D01*
X11853515Y-11845936D02*
X11843991Y-11826888D01*
X11843991Y-11826888D02*
X11834467Y-11788793D01*
X11834467Y-11788793D02*
X11834467Y-11741174D01*
X11834467Y-11741174D02*
X11843991Y-11703079D01*
X11843991Y-11703079D02*
X11853515Y-11684031D01*
X11853515Y-11684031D02*
X11863039Y-11674508D01*
X11863039Y-11674508D02*
X11882086Y-11664984D01*
X12072562Y-11664984D02*
X12091610Y-11664984D01*
X12091610Y-11664984D02*
X12110658Y-11674508D01*
X12110658Y-11674508D02*
X12120182Y-11684031D01*
X12120182Y-11684031D02*
X12129705Y-11703079D01*
X12129705Y-11703079D02*
X12139229Y-11741174D01*
X12139229Y-11741174D02*
X12139229Y-11788793D01*
X12139229Y-11788793D02*
X12129705Y-11826888D01*
X12129705Y-11826888D02*
X12120182Y-11845936D01*
X12120182Y-11845936D02*
X12110658Y-11855460D01*
X12110658Y-11855460D02*
X12091610Y-11864984D01*
X12091610Y-11864984D02*
X12072562Y-11864984D01*
X12072562Y-11864984D02*
X12053515Y-11855460D01*
X12053515Y-11855460D02*
X12043991Y-11845936D01*
X12043991Y-11845936D02*
X12034467Y-11826888D01*
X12034467Y-11826888D02*
X12024943Y-11788793D01*
X12024943Y-11788793D02*
X12024943Y-11741174D01*
X12024943Y-11741174D02*
X12034467Y-11703079D01*
X12034467Y-11703079D02*
X12043991Y-11684031D01*
X12043991Y-11684031D02*
X12053515Y-11674508D01*
X12053515Y-11674508D02*
X12072562Y-11664984D01*
X12263039Y-11664984D02*
X12282086Y-11664984D01*
X12282086Y-11664984D02*
X12301134Y-11674508D01*
X12301134Y-11674508D02*
X12310658Y-11684031D01*
X12310658Y-11684031D02*
X12320182Y-11703079D01*
X12320182Y-11703079D02*
X12329705Y-11741174D01*
X12329705Y-11741174D02*
X12329705Y-11788793D01*
X12329705Y-11788793D02*
X12320182Y-11826888D01*
X12320182Y-11826888D02*
X12310658Y-11845936D01*
X12310658Y-11845936D02*
X12301134Y-11855460D01*
X12301134Y-11855460D02*
X12282086Y-11864984D01*
X12282086Y-11864984D02*
X12263039Y-11864984D01*
X12263039Y-11864984D02*
X12243991Y-11855460D01*
X12243991Y-11855460D02*
X12234467Y-11845936D01*
X12234467Y-11845936D02*
X12224943Y-11826888D01*
X12224943Y-11826888D02*
X12215420Y-11788793D01*
X12215420Y-11788793D02*
X12215420Y-11741174D01*
X12215420Y-11741174D02*
X12224943Y-11703079D01*
X12224943Y-11703079D02*
X12234467Y-11684031D01*
X12234467Y-11684031D02*
X12243991Y-11674508D01*
X12243991Y-11674508D02*
X12263039Y-11664984D01*
X12415420Y-11864984D02*
X12415420Y-11731650D01*
X12415420Y-11750698D02*
X12424943Y-11741174D01*
X12424943Y-11741174D02*
X12443991Y-11731650D01*
X12443991Y-11731650D02*
X12472563Y-11731650D01*
X12472563Y-11731650D02*
X12491610Y-11741174D01*
X12491610Y-11741174D02*
X12501134Y-11760222D01*
X12501134Y-11760222D02*
X12501134Y-11864984D01*
X12501134Y-11760222D02*
X12510658Y-11741174D01*
X12510658Y-11741174D02*
X12529705Y-11731650D01*
X12529705Y-11731650D02*
X12558277Y-11731650D01*
X12558277Y-11731650D02*
X12577324Y-11741174D01*
X12577324Y-11741174D02*
X12586848Y-11760222D01*
X12586848Y-11760222D02*
X12586848Y-11864984D01*
X12682086Y-11864984D02*
X12682086Y-11731650D01*
X12682086Y-11750698D02*
X12691610Y-11741174D01*
X12691610Y-11741174D02*
X12710658Y-11731650D01*
X12710658Y-11731650D02*
X12739229Y-11731650D01*
X12739229Y-11731650D02*
X12758277Y-11741174D01*
X12758277Y-11741174D02*
X12767801Y-11760222D01*
X12767801Y-11760222D02*
X12767801Y-11864984D01*
X12767801Y-11760222D02*
X12777324Y-11741174D01*
X12777324Y-11741174D02*
X12796372Y-11731650D01*
X12796372Y-11731650D02*
X12824943Y-11731650D01*
X12824943Y-11731650D02*
X12843991Y-11741174D01*
X12843991Y-11741174D02*
X12853515Y-11760222D01*
X12853515Y-11760222D02*
X12853515Y-11864984D01*
X13243991Y-11655460D02*
X13072563Y-11912603D01*
X13501134Y-11664984D02*
X13520182Y-11664984D01*
X13520182Y-11664984D02*
X13539229Y-11674508D01*
X13539229Y-11674508D02*
X13548753Y-11684031D01*
X13548753Y-11684031D02*
X13558277Y-11703079D01*
X13558277Y-11703079D02*
X13567801Y-11741174D01*
X13567801Y-11741174D02*
X13567801Y-11788793D01*
X13567801Y-11788793D02*
X13558277Y-11826888D01*
X13558277Y-11826888D02*
X13548753Y-11845936D01*
X13548753Y-11845936D02*
X13539229Y-11855460D01*
X13539229Y-11855460D02*
X13520182Y-11864984D01*
X13520182Y-11864984D02*
X13501134Y-11864984D01*
X13501134Y-11864984D02*
X13482086Y-11855460D01*
X13482086Y-11855460D02*
X13472563Y-11845936D01*
X13472563Y-11845936D02*
X13463039Y-11826888D01*
X13463039Y-11826888D02*
X13453515Y-11788793D01*
X13453515Y-11788793D02*
X13453515Y-11741174D01*
X13453515Y-11741174D02*
X13463039Y-11703079D01*
X13463039Y-11703079D02*
X13472563Y-11684031D01*
X13472563Y-11684031D02*
X13482086Y-11674508D01*
X13482086Y-11674508D02*
X13501134Y-11664984D01*
X13653515Y-11845936D02*
X13663039Y-11855460D01*
X13663039Y-11855460D02*
X13653515Y-11864984D01*
X13653515Y-11864984D02*
X13643991Y-11855460D01*
X13643991Y-11855460D02*
X13653515Y-11845936D01*
X13653515Y-11845936D02*
X13653515Y-11864984D01*
X13786848Y-11664984D02*
X13805896Y-11664984D01*
X13805896Y-11664984D02*
X13824944Y-11674508D01*
X13824944Y-11674508D02*
X13834467Y-11684031D01*
X13834467Y-11684031D02*
X13843991Y-11703079D01*
X13843991Y-11703079D02*
X13853515Y-11741174D01*
X13853515Y-11741174D02*
X13853515Y-11788793D01*
X13853515Y-11788793D02*
X13843991Y-11826888D01*
X13843991Y-11826888D02*
X13834467Y-11845936D01*
X13834467Y-11845936D02*
X13824944Y-11855460D01*
X13824944Y-11855460D02*
X13805896Y-11864984D01*
X13805896Y-11864984D02*
X13786848Y-11864984D01*
X13786848Y-11864984D02*
X13767801Y-11855460D01*
X13767801Y-11855460D02*
X13758277Y-11845936D01*
X13758277Y-11845936D02*
X13748753Y-11826888D01*
X13748753Y-11826888D02*
X13739229Y-11788793D01*
X13739229Y-11788793D02*
X13739229Y-11741174D01*
X13739229Y-11741174D02*
X13748753Y-11703079D01*
X13748753Y-11703079D02*
X13758277Y-11684031D01*
X13758277Y-11684031D02*
X13767801Y-11674508D01*
X13767801Y-11674508D02*
X13786848Y-11664984D01*
X13920182Y-11664984D02*
X14043991Y-11664984D01*
X14043991Y-11664984D02*
X13977325Y-11741174D01*
X13977325Y-11741174D02*
X14005896Y-11741174D01*
X14005896Y-11741174D02*
X14024944Y-11750698D01*
X14024944Y-11750698D02*
X14034467Y-11760222D01*
X14034467Y-11760222D02*
X14043991Y-11779269D01*
X14043991Y-11779269D02*
X14043991Y-11826888D01*
X14043991Y-11826888D02*
X14034467Y-11845936D01*
X14034467Y-11845936D02*
X14024944Y-11855460D01*
X14024944Y-11855460D02*
X14005896Y-11864984D01*
X14005896Y-11864984D02*
X13948753Y-11864984D01*
X13948753Y-11864984D02*
X13929706Y-11855460D01*
X13929706Y-11855460D02*
X13920182Y-11845936D01*
X14139229Y-11864984D02*
X14177325Y-11864984D01*
X14177325Y-11864984D02*
X14196372Y-11855460D01*
X14196372Y-11855460D02*
X14205896Y-11845936D01*
X14205896Y-11845936D02*
X14224944Y-11817365D01*
X14224944Y-11817365D02*
X14234467Y-11779269D01*
X14234467Y-11779269D02*
X14234467Y-11703079D01*
X14234467Y-11703079D02*
X14224944Y-11684031D01*
X14224944Y-11684031D02*
X14215420Y-11674508D01*
X14215420Y-11674508D02*
X14196372Y-11664984D01*
X14196372Y-11664984D02*
X14158277Y-11664984D01*
X14158277Y-11664984D02*
X14139229Y-11674508D01*
X14139229Y-11674508D02*
X14129706Y-11684031D01*
X14129706Y-11684031D02*
X14120182Y-11703079D01*
X14120182Y-11703079D02*
X14120182Y-11750698D01*
X14120182Y-11750698D02*
X14129706Y-11769746D01*
X14129706Y-11769746D02*
X14139229Y-11779269D01*
X14139229Y-11779269D02*
X14158277Y-11788793D01*
X14158277Y-11788793D02*
X14196372Y-11788793D01*
X14196372Y-11788793D02*
X14215420Y-11779269D01*
X14215420Y-11779269D02*
X14224944Y-11769746D01*
X14224944Y-11769746D02*
X14234467Y-11750698D01*
X14405896Y-11731650D02*
X14405896Y-11864984D01*
X14358277Y-11655460D02*
X14310658Y-11798317D01*
X14310658Y-11798317D02*
X14434467Y-11798317D01*
X14501134Y-11664984D02*
X14501134Y-11703079D01*
X14577325Y-11664984D02*
X14577325Y-11703079D01*
X14872563Y-11941174D02*
X14863039Y-11931650D01*
X14863039Y-11931650D02*
X14843991Y-11903079D01*
X14843991Y-11903079D02*
X14834468Y-11884031D01*
X14834468Y-11884031D02*
X14824944Y-11855460D01*
X14824944Y-11855460D02*
X14815420Y-11807841D01*
X14815420Y-11807841D02*
X14815420Y-11769746D01*
X14815420Y-11769746D02*
X14824944Y-11722127D01*
X14824944Y-11722127D02*
X14834468Y-11693555D01*
X14834468Y-11693555D02*
X14843991Y-11674508D01*
X14843991Y-11674508D02*
X14863039Y-11645936D01*
X14863039Y-11645936D02*
X14872563Y-11636412D01*
X15053515Y-11864984D02*
X14939229Y-11864984D01*
X14996372Y-11864984D02*
X14996372Y-11664984D01*
X14996372Y-11664984D02*
X14977325Y-11693555D01*
X14977325Y-11693555D02*
X14958277Y-11712603D01*
X14958277Y-11712603D02*
X14939229Y-11722127D01*
X15129706Y-11684031D02*
X15139229Y-11674508D01*
X15139229Y-11674508D02*
X15158277Y-11664984D01*
X15158277Y-11664984D02*
X15205896Y-11664984D01*
X15205896Y-11664984D02*
X15224944Y-11674508D01*
X15224944Y-11674508D02*
X15234468Y-11684031D01*
X15234468Y-11684031D02*
X15243991Y-11703079D01*
X15243991Y-11703079D02*
X15243991Y-11722127D01*
X15243991Y-11722127D02*
X15234468Y-11750698D01*
X15234468Y-11750698D02*
X15120182Y-11864984D01*
X15120182Y-11864984D02*
X15243991Y-11864984D01*
X15482087Y-11864984D02*
X15482087Y-11664984D01*
X15567801Y-11864984D02*
X15567801Y-11760222D01*
X15567801Y-11760222D02*
X15558277Y-11741174D01*
X15558277Y-11741174D02*
X15539230Y-11731650D01*
X15539230Y-11731650D02*
X15510658Y-11731650D01*
X15510658Y-11731650D02*
X15491610Y-11741174D01*
X15491610Y-11741174D02*
X15482087Y-11750698D01*
X15691610Y-11864984D02*
X15672563Y-11855460D01*
X15672563Y-11855460D02*
X15663039Y-11845936D01*
X15663039Y-11845936D02*
X15653515Y-11826888D01*
X15653515Y-11826888D02*
X15653515Y-11769746D01*
X15653515Y-11769746D02*
X15663039Y-11750698D01*
X15663039Y-11750698D02*
X15672563Y-11741174D01*
X15672563Y-11741174D02*
X15691610Y-11731650D01*
X15691610Y-11731650D02*
X15720182Y-11731650D01*
X15720182Y-11731650D02*
X15739230Y-11741174D01*
X15739230Y-11741174D02*
X15748753Y-11750698D01*
X15748753Y-11750698D02*
X15758277Y-11769746D01*
X15758277Y-11769746D02*
X15758277Y-11826888D01*
X15758277Y-11826888D02*
X15748753Y-11845936D01*
X15748753Y-11845936D02*
X15739230Y-11855460D01*
X15739230Y-11855460D02*
X15720182Y-11864984D01*
X15720182Y-11864984D02*
X15691610Y-11864984D01*
X15872563Y-11864984D02*
X15853515Y-11855460D01*
X15853515Y-11855460D02*
X15843991Y-11836412D01*
X15843991Y-11836412D02*
X15843991Y-11664984D01*
X16024944Y-11855460D02*
X16005896Y-11864984D01*
X16005896Y-11864984D02*
X15967801Y-11864984D01*
X15967801Y-11864984D02*
X15948753Y-11855460D01*
X15948753Y-11855460D02*
X15939230Y-11836412D01*
X15939230Y-11836412D02*
X15939230Y-11760222D01*
X15939230Y-11760222D02*
X15948753Y-11741174D01*
X15948753Y-11741174D02*
X15967801Y-11731650D01*
X15967801Y-11731650D02*
X16005896Y-11731650D01*
X16005896Y-11731650D02*
X16024944Y-11741174D01*
X16024944Y-11741174D02*
X16034468Y-11760222D01*
X16034468Y-11760222D02*
X16034468Y-11779269D01*
X16034468Y-11779269D02*
X15939230Y-11798317D01*
X16110658Y-11855460D02*
X16129706Y-11864984D01*
X16129706Y-11864984D02*
X16167801Y-11864984D01*
X16167801Y-11864984D02*
X16186849Y-11855460D01*
X16186849Y-11855460D02*
X16196372Y-11836412D01*
X16196372Y-11836412D02*
X16196372Y-11826888D01*
X16196372Y-11826888D02*
X16186849Y-11807841D01*
X16186849Y-11807841D02*
X16167801Y-11798317D01*
X16167801Y-11798317D02*
X16139230Y-11798317D01*
X16139230Y-11798317D02*
X16120182Y-11788793D01*
X16120182Y-11788793D02*
X16110658Y-11769746D01*
X16110658Y-11769746D02*
X16110658Y-11760222D01*
X16110658Y-11760222D02*
X16120182Y-11741174D01*
X16120182Y-11741174D02*
X16139230Y-11731650D01*
X16139230Y-11731650D02*
X16167801Y-11731650D01*
X16167801Y-11731650D02*
X16186849Y-11741174D01*
X16263039Y-11941174D02*
X16272563Y-11931650D01*
X16272563Y-11931650D02*
X16291611Y-11903079D01*
X16291611Y-11903079D02*
X16301134Y-11884031D01*
X16301134Y-11884031D02*
X16310658Y-11855460D01*
X16310658Y-11855460D02*
X16320182Y-11807841D01*
X16320182Y-11807841D02*
X16320182Y-11769746D01*
X16320182Y-11769746D02*
X16310658Y-11722127D01*
X16310658Y-11722127D02*
X16301134Y-11693555D01*
X16301134Y-11693555D02*
X16291611Y-11674508D01*
X16291611Y-11674508D02*
X16272563Y-11645936D01*
X16272563Y-11645936D02*
X16263039Y-11636412D01*
X11097500Y-11937500D02*
X11297500Y-12137500D01*
X11297500Y-11937500D02*
X11097500Y-12137500D01*
X11297500Y-12037500D02*
G75*
G02*
X11097500Y-12037500I-100000J0D01*
G01*
X11097500Y-12037500D02*
G75*
G02*
X11297500Y-12037500I100000J0D01*
G01*
X11539229Y-11928984D02*
X11663039Y-11928984D01*
X11663039Y-11928984D02*
X11596372Y-12005174D01*
X11596372Y-12005174D02*
X11624943Y-12005174D01*
X11624943Y-12005174D02*
X11643991Y-12014698D01*
X11643991Y-12014698D02*
X11653515Y-12024222D01*
X11653515Y-12024222D02*
X11663039Y-12043269D01*
X11663039Y-12043269D02*
X11663039Y-12090888D01*
X11663039Y-12090888D02*
X11653515Y-12109936D01*
X11653515Y-12109936D02*
X11643991Y-12119460D01*
X11643991Y-12119460D02*
X11624943Y-12128984D01*
X11624943Y-12128984D02*
X11567801Y-12128984D01*
X11567801Y-12128984D02*
X11548753Y-12119460D01*
X11548753Y-12119460D02*
X11539229Y-12109936D01*
X11748753Y-12109936D02*
X11758277Y-12119460D01*
X11758277Y-12119460D02*
X11748753Y-12128984D01*
X11748753Y-12128984D02*
X11739229Y-12119460D01*
X11739229Y-12119460D02*
X11748753Y-12109936D01*
X11748753Y-12109936D02*
X11748753Y-12128984D01*
X11834467Y-11948031D02*
X11843991Y-11938508D01*
X11843991Y-11938508D02*
X11863039Y-11928984D01*
X11863039Y-11928984D02*
X11910658Y-11928984D01*
X11910658Y-11928984D02*
X11929705Y-11938508D01*
X11929705Y-11938508D02*
X11939229Y-11948031D01*
X11939229Y-11948031D02*
X11948753Y-11967079D01*
X11948753Y-11967079D02*
X11948753Y-11986127D01*
X11948753Y-11986127D02*
X11939229Y-12014698D01*
X11939229Y-12014698D02*
X11824943Y-12128984D01*
X11824943Y-12128984D02*
X11948753Y-12128984D01*
X12072562Y-11928984D02*
X12091610Y-11928984D01*
X12091610Y-11928984D02*
X12110658Y-11938508D01*
X12110658Y-11938508D02*
X12120182Y-11948031D01*
X12120182Y-11948031D02*
X12129705Y-11967079D01*
X12129705Y-11967079D02*
X12139229Y-12005174D01*
X12139229Y-12005174D02*
X12139229Y-12052793D01*
X12139229Y-12052793D02*
X12129705Y-12090888D01*
X12129705Y-12090888D02*
X12120182Y-12109936D01*
X12120182Y-12109936D02*
X12110658Y-12119460D01*
X12110658Y-12119460D02*
X12091610Y-12128984D01*
X12091610Y-12128984D02*
X12072562Y-12128984D01*
X12072562Y-12128984D02*
X12053515Y-12119460D01*
X12053515Y-12119460D02*
X12043991Y-12109936D01*
X12043991Y-12109936D02*
X12034467Y-12090888D01*
X12034467Y-12090888D02*
X12024943Y-12052793D01*
X12024943Y-12052793D02*
X12024943Y-12005174D01*
X12024943Y-12005174D02*
X12034467Y-11967079D01*
X12034467Y-11967079D02*
X12043991Y-11948031D01*
X12043991Y-11948031D02*
X12053515Y-11938508D01*
X12053515Y-11938508D02*
X12072562Y-11928984D01*
X12263039Y-11928984D02*
X12282086Y-11928984D01*
X12282086Y-11928984D02*
X12301134Y-11938508D01*
X12301134Y-11938508D02*
X12310658Y-11948031D01*
X12310658Y-11948031D02*
X12320182Y-11967079D01*
X12320182Y-11967079D02*
X12329705Y-12005174D01*
X12329705Y-12005174D02*
X12329705Y-12052793D01*
X12329705Y-12052793D02*
X12320182Y-12090888D01*
X12320182Y-12090888D02*
X12310658Y-12109936D01*
X12310658Y-12109936D02*
X12301134Y-12119460D01*
X12301134Y-12119460D02*
X12282086Y-12128984D01*
X12282086Y-12128984D02*
X12263039Y-12128984D01*
X12263039Y-12128984D02*
X12243991Y-12119460D01*
X12243991Y-12119460D02*
X12234467Y-12109936D01*
X12234467Y-12109936D02*
X12224943Y-12090888D01*
X12224943Y-12090888D02*
X12215420Y-12052793D01*
X12215420Y-12052793D02*
X12215420Y-12005174D01*
X12215420Y-12005174D02*
X12224943Y-11967079D01*
X12224943Y-11967079D02*
X12234467Y-11948031D01*
X12234467Y-11948031D02*
X12243991Y-11938508D01*
X12243991Y-11938508D02*
X12263039Y-11928984D01*
X12415420Y-12128984D02*
X12415420Y-11995650D01*
X12415420Y-12014698D02*
X12424943Y-12005174D01*
X12424943Y-12005174D02*
X12443991Y-11995650D01*
X12443991Y-11995650D02*
X12472563Y-11995650D01*
X12472563Y-11995650D02*
X12491610Y-12005174D01*
X12491610Y-12005174D02*
X12501134Y-12024222D01*
X12501134Y-12024222D02*
X12501134Y-12128984D01*
X12501134Y-12024222D02*
X12510658Y-12005174D01*
X12510658Y-12005174D02*
X12529705Y-11995650D01*
X12529705Y-11995650D02*
X12558277Y-11995650D01*
X12558277Y-11995650D02*
X12577324Y-12005174D01*
X12577324Y-12005174D02*
X12586848Y-12024222D01*
X12586848Y-12024222D02*
X12586848Y-12128984D01*
X12682086Y-12128984D02*
X12682086Y-11995650D01*
X12682086Y-12014698D02*
X12691610Y-12005174D01*
X12691610Y-12005174D02*
X12710658Y-11995650D01*
X12710658Y-11995650D02*
X12739229Y-11995650D01*
X12739229Y-11995650D02*
X12758277Y-12005174D01*
X12758277Y-12005174D02*
X12767801Y-12024222D01*
X12767801Y-12024222D02*
X12767801Y-12128984D01*
X12767801Y-12024222D02*
X12777324Y-12005174D01*
X12777324Y-12005174D02*
X12796372Y-11995650D01*
X12796372Y-11995650D02*
X12824943Y-11995650D01*
X12824943Y-11995650D02*
X12843991Y-12005174D01*
X12843991Y-12005174D02*
X12853515Y-12024222D01*
X12853515Y-12024222D02*
X12853515Y-12128984D01*
X13243991Y-11919460D02*
X13072563Y-12176603D01*
X13501134Y-11928984D02*
X13520182Y-11928984D01*
X13520182Y-11928984D02*
X13539229Y-11938508D01*
X13539229Y-11938508D02*
X13548753Y-11948031D01*
X13548753Y-11948031D02*
X13558277Y-11967079D01*
X13558277Y-11967079D02*
X13567801Y-12005174D01*
X13567801Y-12005174D02*
X13567801Y-12052793D01*
X13567801Y-12052793D02*
X13558277Y-12090888D01*
X13558277Y-12090888D02*
X13548753Y-12109936D01*
X13548753Y-12109936D02*
X13539229Y-12119460D01*
X13539229Y-12119460D02*
X13520182Y-12128984D01*
X13520182Y-12128984D02*
X13501134Y-12128984D01*
X13501134Y-12128984D02*
X13482086Y-12119460D01*
X13482086Y-12119460D02*
X13472563Y-12109936D01*
X13472563Y-12109936D02*
X13463039Y-12090888D01*
X13463039Y-12090888D02*
X13453515Y-12052793D01*
X13453515Y-12052793D02*
X13453515Y-12005174D01*
X13453515Y-12005174D02*
X13463039Y-11967079D01*
X13463039Y-11967079D02*
X13472563Y-11948031D01*
X13472563Y-11948031D02*
X13482086Y-11938508D01*
X13482086Y-11938508D02*
X13501134Y-11928984D01*
X13653515Y-12109936D02*
X13663039Y-12119460D01*
X13663039Y-12119460D02*
X13653515Y-12128984D01*
X13653515Y-12128984D02*
X13643991Y-12119460D01*
X13643991Y-12119460D02*
X13653515Y-12109936D01*
X13653515Y-12109936D02*
X13653515Y-12128984D01*
X13853515Y-12128984D02*
X13739229Y-12128984D01*
X13796372Y-12128984D02*
X13796372Y-11928984D01*
X13796372Y-11928984D02*
X13777325Y-11957555D01*
X13777325Y-11957555D02*
X13758277Y-11976603D01*
X13758277Y-11976603D02*
X13739229Y-11986127D01*
X13929706Y-11948031D02*
X13939229Y-11938508D01*
X13939229Y-11938508D02*
X13958277Y-11928984D01*
X13958277Y-11928984D02*
X14005896Y-11928984D01*
X14005896Y-11928984D02*
X14024944Y-11938508D01*
X14024944Y-11938508D02*
X14034467Y-11948031D01*
X14034467Y-11948031D02*
X14043991Y-11967079D01*
X14043991Y-11967079D02*
X14043991Y-11986127D01*
X14043991Y-11986127D02*
X14034467Y-12014698D01*
X14034467Y-12014698D02*
X13920182Y-12128984D01*
X13920182Y-12128984D02*
X14043991Y-12128984D01*
X14215420Y-11928984D02*
X14177325Y-11928984D01*
X14177325Y-11928984D02*
X14158277Y-11938508D01*
X14158277Y-11938508D02*
X14148753Y-11948031D01*
X14148753Y-11948031D02*
X14129706Y-11976603D01*
X14129706Y-11976603D02*
X14120182Y-12014698D01*
X14120182Y-12014698D02*
X14120182Y-12090888D01*
X14120182Y-12090888D02*
X14129706Y-12109936D01*
X14129706Y-12109936D02*
X14139229Y-12119460D01*
X14139229Y-12119460D02*
X14158277Y-12128984D01*
X14158277Y-12128984D02*
X14196372Y-12128984D01*
X14196372Y-12128984D02*
X14215420Y-12119460D01*
X14215420Y-12119460D02*
X14224944Y-12109936D01*
X14224944Y-12109936D02*
X14234467Y-12090888D01*
X14234467Y-12090888D02*
X14234467Y-12043269D01*
X14234467Y-12043269D02*
X14224944Y-12024222D01*
X14224944Y-12024222D02*
X14215420Y-12014698D01*
X14215420Y-12014698D02*
X14196372Y-12005174D01*
X14196372Y-12005174D02*
X14158277Y-12005174D01*
X14158277Y-12005174D02*
X14139229Y-12014698D01*
X14139229Y-12014698D02*
X14129706Y-12024222D01*
X14129706Y-12024222D02*
X14120182Y-12043269D01*
X14358277Y-11928984D02*
X14377325Y-11928984D01*
X14377325Y-11928984D02*
X14396372Y-11938508D01*
X14396372Y-11938508D02*
X14405896Y-11948031D01*
X14405896Y-11948031D02*
X14415420Y-11967079D01*
X14415420Y-11967079D02*
X14424944Y-12005174D01*
X14424944Y-12005174D02*
X14424944Y-12052793D01*
X14424944Y-12052793D02*
X14415420Y-12090888D01*
X14415420Y-12090888D02*
X14405896Y-12109936D01*
X14405896Y-12109936D02*
X14396372Y-12119460D01*
X14396372Y-12119460D02*
X14377325Y-12128984D01*
X14377325Y-12128984D02*
X14358277Y-12128984D01*
X14358277Y-12128984D02*
X14339229Y-12119460D01*
X14339229Y-12119460D02*
X14329706Y-12109936D01*
X14329706Y-12109936D02*
X14320182Y-12090888D01*
X14320182Y-12090888D02*
X14310658Y-12052793D01*
X14310658Y-12052793D02*
X14310658Y-12005174D01*
X14310658Y-12005174D02*
X14320182Y-11967079D01*
X14320182Y-11967079D02*
X14329706Y-11948031D01*
X14329706Y-11948031D02*
X14339229Y-11938508D01*
X14339229Y-11938508D02*
X14358277Y-11928984D01*
X14501134Y-11928984D02*
X14501134Y-11967079D01*
X14577325Y-11928984D02*
X14577325Y-11967079D01*
X14872563Y-12205174D02*
X14863039Y-12195650D01*
X14863039Y-12195650D02*
X14843991Y-12167079D01*
X14843991Y-12167079D02*
X14834468Y-12148031D01*
X14834468Y-12148031D02*
X14824944Y-12119460D01*
X14824944Y-12119460D02*
X14815420Y-12071841D01*
X14815420Y-12071841D02*
X14815420Y-12033746D01*
X14815420Y-12033746D02*
X14824944Y-11986127D01*
X14824944Y-11986127D02*
X14834468Y-11957555D01*
X14834468Y-11957555D02*
X14843991Y-11938508D01*
X14843991Y-11938508D02*
X14863039Y-11909936D01*
X14863039Y-11909936D02*
X14872563Y-11900412D01*
X15034468Y-11995650D02*
X15034468Y-12128984D01*
X14986848Y-11919460D02*
X14939229Y-12062317D01*
X14939229Y-12062317D02*
X15063039Y-12062317D01*
X15291610Y-12128984D02*
X15291610Y-11928984D01*
X15377325Y-12128984D02*
X15377325Y-12024222D01*
X15377325Y-12024222D02*
X15367801Y-12005174D01*
X15367801Y-12005174D02*
X15348753Y-11995650D01*
X15348753Y-11995650D02*
X15320182Y-11995650D01*
X15320182Y-11995650D02*
X15301134Y-12005174D01*
X15301134Y-12005174D02*
X15291610Y-12014698D01*
X15501134Y-12128984D02*
X15482087Y-12119460D01*
X15482087Y-12119460D02*
X15472563Y-12109936D01*
X15472563Y-12109936D02*
X15463039Y-12090888D01*
X15463039Y-12090888D02*
X15463039Y-12033746D01*
X15463039Y-12033746D02*
X15472563Y-12014698D01*
X15472563Y-12014698D02*
X15482087Y-12005174D01*
X15482087Y-12005174D02*
X15501134Y-11995650D01*
X15501134Y-11995650D02*
X15529706Y-11995650D01*
X15529706Y-11995650D02*
X15548753Y-12005174D01*
X15548753Y-12005174D02*
X15558277Y-12014698D01*
X15558277Y-12014698D02*
X15567801Y-12033746D01*
X15567801Y-12033746D02*
X15567801Y-12090888D01*
X15567801Y-12090888D02*
X15558277Y-12109936D01*
X15558277Y-12109936D02*
X15548753Y-12119460D01*
X15548753Y-12119460D02*
X15529706Y-12128984D01*
X15529706Y-12128984D02*
X15501134Y-12128984D01*
X15682087Y-12128984D02*
X15663039Y-12119460D01*
X15663039Y-12119460D02*
X15653515Y-12100412D01*
X15653515Y-12100412D02*
X15653515Y-11928984D01*
X15834468Y-12119460D02*
X15815420Y-12128984D01*
X15815420Y-12128984D02*
X15777325Y-12128984D01*
X15777325Y-12128984D02*
X15758277Y-12119460D01*
X15758277Y-12119460D02*
X15748753Y-12100412D01*
X15748753Y-12100412D02*
X15748753Y-12024222D01*
X15748753Y-12024222D02*
X15758277Y-12005174D01*
X15758277Y-12005174D02*
X15777325Y-11995650D01*
X15777325Y-11995650D02*
X15815420Y-11995650D01*
X15815420Y-11995650D02*
X15834468Y-12005174D01*
X15834468Y-12005174D02*
X15843991Y-12024222D01*
X15843991Y-12024222D02*
X15843991Y-12043269D01*
X15843991Y-12043269D02*
X15748753Y-12062317D01*
X15920182Y-12119460D02*
X15939230Y-12128984D01*
X15939230Y-12128984D02*
X15977325Y-12128984D01*
X15977325Y-12128984D02*
X15996372Y-12119460D01*
X15996372Y-12119460D02*
X16005896Y-12100412D01*
X16005896Y-12100412D02*
X16005896Y-12090888D01*
X16005896Y-12090888D02*
X15996372Y-12071841D01*
X15996372Y-12071841D02*
X15977325Y-12062317D01*
X15977325Y-12062317D02*
X15948753Y-12062317D01*
X15948753Y-12062317D02*
X15929706Y-12052793D01*
X15929706Y-12052793D02*
X15920182Y-12033746D01*
X15920182Y-12033746D02*
X15920182Y-12024222D01*
X15920182Y-12024222D02*
X15929706Y-12005174D01*
X15929706Y-12005174D02*
X15948753Y-11995650D01*
X15948753Y-11995650D02*
X15977325Y-11995650D01*
X15977325Y-11995650D02*
X15996372Y-12005174D01*
X16072563Y-12205174D02*
X16082087Y-12195650D01*
X16082087Y-12195650D02*
X16101134Y-12167079D01*
X16101134Y-12167079D02*
X16110658Y-12148031D01*
X16110658Y-12148031D02*
X16120182Y-12119460D01*
X16120182Y-12119460D02*
X16129706Y-12071841D01*
X16129706Y-12071841D02*
X16129706Y-12033746D01*
X16129706Y-12033746D02*
X16120182Y-11986127D01*
X16120182Y-11986127D02*
X16110658Y-11957555D01*
X16110658Y-11957555D02*
X16101134Y-11938508D01*
X16101134Y-11938508D02*
X16082087Y-11909936D01*
X16082087Y-11909936D02*
X16072563Y-11900412D01*
M02*
