%TF.GenerationSoftware,KiCad,Pcbnew,8.0.5*%
%TF.CreationDate,2025-03-12T15:25:44-04:00*%
%TF.ProjectId,PCB_version4,5043425f-7665-4727-9369-6f6e342e6b69,rev?*%
%TF.SameCoordinates,Original*%
%TF.FileFunction,Drillmap*%
%TF.FilePolarity,Positive*%
%FSLAX45Y45*%
G04 Gerber Fmt 4.5, Leading zero omitted, Abs format (unit mm)*
G04 Created by KiCad (PCBNEW 8.0.5) date 2025-03-12 15:25:44*
%MOMM*%
%LPD*%
G01*
G04 APERTURE LIST*
%ADD10C,0.050000*%
%ADD11C,0.200000*%
G04 APERTURE END LIST*
D10*
X11300000Y-5425000D02*
X21600000Y-5425000D01*
X21600000Y-10075000D01*
X11300000Y-10075000D01*
X11300000Y-5425000D01*
D11*
X11558277Y-10388984D02*
X11558277Y-10188984D01*
X11558277Y-10188984D02*
X11605896Y-10188984D01*
X11605896Y-10188984D02*
X11634467Y-10198508D01*
X11634467Y-10198508D02*
X11653515Y-10217555D01*
X11653515Y-10217555D02*
X11663039Y-10236603D01*
X11663039Y-10236603D02*
X11672562Y-10274698D01*
X11672562Y-10274698D02*
X11672562Y-10303270D01*
X11672562Y-10303270D02*
X11663039Y-10341365D01*
X11663039Y-10341365D02*
X11653515Y-10360412D01*
X11653515Y-10360412D02*
X11634467Y-10379460D01*
X11634467Y-10379460D02*
X11605896Y-10388984D01*
X11605896Y-10388984D02*
X11558277Y-10388984D01*
X11758277Y-10388984D02*
X11758277Y-10255650D01*
X11758277Y-10293746D02*
X11767801Y-10274698D01*
X11767801Y-10274698D02*
X11777324Y-10265174D01*
X11777324Y-10265174D02*
X11796372Y-10255650D01*
X11796372Y-10255650D02*
X11815420Y-10255650D01*
X11882086Y-10388984D02*
X11882086Y-10255650D01*
X11882086Y-10188984D02*
X11872562Y-10198508D01*
X11872562Y-10198508D02*
X11882086Y-10208031D01*
X11882086Y-10208031D02*
X11891610Y-10198508D01*
X11891610Y-10198508D02*
X11882086Y-10188984D01*
X11882086Y-10188984D02*
X11882086Y-10208031D01*
X12005896Y-10388984D02*
X11986848Y-10379460D01*
X11986848Y-10379460D02*
X11977324Y-10360412D01*
X11977324Y-10360412D02*
X11977324Y-10188984D01*
X12110658Y-10388984D02*
X12091610Y-10379460D01*
X12091610Y-10379460D02*
X12082086Y-10360412D01*
X12082086Y-10360412D02*
X12082086Y-10188984D01*
X12339229Y-10388984D02*
X12339229Y-10188984D01*
X12339229Y-10188984D02*
X12405896Y-10331841D01*
X12405896Y-10331841D02*
X12472562Y-10188984D01*
X12472562Y-10188984D02*
X12472562Y-10388984D01*
X12653515Y-10388984D02*
X12653515Y-10284222D01*
X12653515Y-10284222D02*
X12643991Y-10265174D01*
X12643991Y-10265174D02*
X12624943Y-10255650D01*
X12624943Y-10255650D02*
X12586848Y-10255650D01*
X12586848Y-10255650D02*
X12567801Y-10265174D01*
X12653515Y-10379460D02*
X12634467Y-10388984D01*
X12634467Y-10388984D02*
X12586848Y-10388984D01*
X12586848Y-10388984D02*
X12567801Y-10379460D01*
X12567801Y-10379460D02*
X12558277Y-10360412D01*
X12558277Y-10360412D02*
X12558277Y-10341365D01*
X12558277Y-10341365D02*
X12567801Y-10322317D01*
X12567801Y-10322317D02*
X12586848Y-10312793D01*
X12586848Y-10312793D02*
X12634467Y-10312793D01*
X12634467Y-10312793D02*
X12653515Y-10303270D01*
X12748753Y-10255650D02*
X12748753Y-10455650D01*
X12748753Y-10265174D02*
X12767801Y-10255650D01*
X12767801Y-10255650D02*
X12805896Y-10255650D01*
X12805896Y-10255650D02*
X12824943Y-10265174D01*
X12824943Y-10265174D02*
X12834467Y-10274698D01*
X12834467Y-10274698D02*
X12843991Y-10293746D01*
X12843991Y-10293746D02*
X12843991Y-10350889D01*
X12843991Y-10350889D02*
X12834467Y-10369936D01*
X12834467Y-10369936D02*
X12824943Y-10379460D01*
X12824943Y-10379460D02*
X12805896Y-10388984D01*
X12805896Y-10388984D02*
X12767801Y-10388984D01*
X12767801Y-10388984D02*
X12748753Y-10379460D01*
X12929705Y-10369936D02*
X12939229Y-10379460D01*
X12939229Y-10379460D02*
X12929705Y-10388984D01*
X12929705Y-10388984D02*
X12920182Y-10379460D01*
X12920182Y-10379460D02*
X12929705Y-10369936D01*
X12929705Y-10369936D02*
X12929705Y-10388984D01*
X12929705Y-10265174D02*
X12939229Y-10274698D01*
X12939229Y-10274698D02*
X12929705Y-10284222D01*
X12929705Y-10284222D02*
X12920182Y-10274698D01*
X12920182Y-10274698D02*
X12929705Y-10265174D01*
X12929705Y-10265174D02*
X12929705Y-10284222D01*
M02*
